<svg xmlns="http://www.w3.org/2000/svg" width="29" height="29" viewBox="0 0 29 29"><defs><clipPath id="a"><path fill="#fff" d="M1043.5 2421a14.5 14.5 0 1 1 0 29 14.5 14.5 0 0 1 0-29z"/></clipPath><clipPath id="b"><path fill="#fff" d="M1043.5 2421a14.5 14.5 0 1 1 0 29 14.5 14.5 0 0 1 0-29z"/></clipPath></defs><path fill="none" d="M14.5 0a14.5 14.5 0 1 1 0 29 14.5 14.5 0 0 1 0-29z"/><path fill="none" d="M14.5 0a14.5 14.5 0 1 1 0 29 14.5 14.5 0 0 1 0-29z"/><path fill="none" stroke="#fff" stroke-linecap="round" stroke-linejoin="round" stroke-miterlimit="50" stroke-width="2" d="M1043.5 2421a14.5 14.5 0 1 1 0 29 14.5 14.5 0 0 1 0-29z" clip-path="url(&quot;#a&quot;)" transform="translate(-1029 -2421)"/><path fill="none" stroke="#fff" stroke-miterlimit="50" stroke-width="2" d="M1043.5 2421a14.5 14.5 0 1 1 0 29 14.5 14.5 0 0 1 0-29z" clip-path="url(&quot;#b&quot;)" transform="translate(-1029 -2421)"/><path fill="#fff" d="M17.2 14.32a.3.3 0 0 1-.09.2l-4.16 4.16a.31.31 0 0 1-.21.09.3.3 0 0 1-.2-.09l-.45-.45a.3.3 0 0 1-.09-.2c0-.07.04-.15.09-.21l3.51-3.5-3.51-3.51a.36.36 0 0 1-.09-.21c0-.08.04-.15.09-.2l.45-.45a.3.3 0 0 1 .2-.09c.08 0 .16.04.21.09l4.16 4.16c.05.05.09.13.09.21z"/></svg>