<svg width="28" height="28" viewBox="0 0 28 28" version="1.1" xmlns="http://www.w3.org/2000/svg" xmlns:xlink="http://www.w3.org/1999/xlink" xmlns:figma="http://www.figma.com/figma/ns">
<title>vrem</title>
<desc>Created using Figma</desc>
<g id="Canvas" transform="translate(-1590 2167)" figma:type="canvas">
<g id="vrem" figma:type="vector-operation">
<use xlink:href="#path0_fill" transform="translate(1590 -2167)" fill="#979797"/>
</g>
</g>
<defs>
<path id="path0_fill" fill-rule="evenodd" d="M 19.0625 25.9812C 20.6062 25.325 22 24.3875 23.1937 23.1938C 24.3875 22 25.325 20.6062 25.9812 19.0625C 26.6562 17.4563 27 15.7563 27 14C 27 12.2437 26.6562 10.5376 25.9812 8.9375C 25.325 7.3938 24.3875 6 23.1937 4.80615C 22 3.61255 20.6125 2.67505 19.0625 2.0188C 17.4563 1.34375 15.7562 1 14 1C 12.2438 1 10.5437 1.34375 8.9375 2.0188C 7.3938 2.67505 6 3.61255 4.80627 4.80615C 3.61255 6 2.67505 7.38745 2.0188 8.9375C 1.34375 10.5437 1 12.2437 1 14C 1 15.7563 1.34375 17.4563 2.0188 19.0625C 2.67505 20.6062 3.61255 22 4.80627 23.1938C 6 24.3875 7.38745 25.325 8.9375 25.9812C 10.5437 26.6562 12.2438 27 14 27C 15.7562 27 17.4625 26.6562 19.0625 25.9812ZM 0 14C 0 6.2688 6.2688 0 14 0C 21.7312 0 28 6.2688 28 14C 28 21.7312 21.7312 28 14 28C 6.2688 28 0 21.7312 0 14ZM 14.5 3C 14.5 3.27612 14.2761 3.5 14 3.5C 13.7239 3.5 13.5 3.27612 13.5 3C 13.5 2.72388 13.7239 2.5 14 2.5C 14.2761 2.5 14.5 2.72388 14.5 3ZM 14 25.5C 14.2761 25.5 14.5 25.2761 14.5 25C 14.5 24.7239 14.2761 24.5 14 24.5C 13.7239 24.5 13.5 24.7239 13.5 25C 13.5 25.2761 13.7239 25.5 14 25.5ZM 25.5 14C 25.5 14.2761 25.2761 14.5 25 14.5C 24.7239 14.5 24.5 14.2761 24.5 14C 24.5 13.7239 24.7239 13.5 25 13.5C 25.2761 13.5 25.5 13.7239 25.5 14ZM 3 14.5C 3.27612 14.5 3.5 14.2761 3.5 14C 3.5 13.7239 3.27612 13.5 3 13.5C 2.72388 13.5 2.5 13.7239 2.5 14C 2.5 14.2761 2.72388 14.5 3 14.5ZM 9 4.4751C 9 4.75122 8.77612 4.9751 8.5 4.9751C 8.22388 4.9751 8 4.75122 8 4.4751C 8 4.19897 8.22388 3.9751 8.5 3.9751C 8.77612 3.9751 9 4.19897 9 4.4751ZM 19.5 24.0249C 19.7761 24.0249 20 23.801 20 23.5249C 20 23.2488 19.7761 23.0249 19.5 23.0249C 19.2239 23.0249 19 23.2488 19 23.5249C 19 23.801 19.2239 24.0249 19.5 24.0249ZM 24.025 8.5C 24.025 8.77612 23.8011 9 23.525 9C 23.2489 9 23.025 8.77612 23.025 8.5C 23.025 8.22388 23.2489 8 23.525 8C 23.8011 8 24.025 8.22388 24.025 8.5ZM 4.47498 20C 4.7511 20 4.97498 19.7761 4.97498 19.5C 4.97498 19.2239 4.7511 19 4.47498 19C 4.19885 19 3.97498 19.2239 3.97498 19.5C 3.97498 19.7761 4.19885 20 4.47498 20ZM 4.97498 8.5C 4.97498 8.77612 4.7511 9 4.47498 9C 4.19885 9 3.97498 8.77612 3.97498 8.5C 3.97498 8.22388 4.19885 8 4.47498 8C 4.7511 8 4.97498 8.22388 4.97498 8.5ZM 23.525 20C 23.8011 20 24.025 19.7761 24.025 19.5C 24.025 19.2239 23.8011 19 23.525 19C 23.2489 19 23.025 19.2239 23.025 19.5C 23.025 19.7761 23.2489 20 23.525 20ZM 20 4.4751C 20 4.75122 19.7761 4.9751 19.5 4.9751C 19.2239 4.9751 19 4.75122 19 4.4751C 19 4.19897 19.2239 3.9751 19.5 3.9751C 19.7761 3.9751 20 4.19897 20 4.4751ZM 8.5 24.0249C 8.77612 24.0249 9 23.801 9 23.5249C 9 23.2488 8.77612 23.0249 8.5 23.0249C 8.22388 23.0249 8 23.2488 8 23.5249C 8 23.801 8.22388 24.0249 8.5 24.0249ZM 14.0312 13C 14.3625 13.0125 14.6875 13.1875 14.8688 13.5C 15.1438 13.9812 14.9813 14.5874 14.5062 14.8687L 14.5062 22.5C 14.5062 22.7749 14.2812 23 14.0062 23C 13.7313 23 13.5062 22.7749 13.5062 22.5L 13.5062 14.8687C 13.3563 14.7874 13.2313 14.6624 13.1376 14.5061C 12.9501 14.1812 12.9688 13.7874 13.15 13.4873L 10.8 9.55615C 10.6562 9.3186 10.7313 9.01245 10.9688 8.86865C 11.2063 8.72485 11.5126 8.7998 11.6562 9.03735L 14.0312 13Z"/>
</defs>
</svg>
