<svg id="icons" xmlns="http://www.w3.org/2000/svg" viewBox="0 0 48 46"><defs><style>.cls-1{fill:none;stroke:#505050;stroke-miterlimit:10;stroke-width:2px;}</style></defs><title>clock2</title><line class="cls-1" x1="8" y1="17" x2="23" y2="17"/><line class="cls-1" y1="25" x2="15" y2="25"/><line class="cls-1" x1="5" y1="33" x2="20" y2="33"/><polyline class="cls-1" points="28 5 24 5 24 1 34 1 34 5 30 5"/><path class="cls-1" d="M239.5,158.883V161a18,18,0,0,1-2,35.883h-15" transform="translate(-208.5 -151.883)"/><path class="cls-1" d="M221.906,187.88a18.09,18.09,0,0,0,4.595,5.253" transform="translate(-208.5 -151.883)"/><path class="cls-1" d="M219.527,179.883a17.928,17.928,0,0,0,.971,4.927" transform="translate(-208.5 -151.883)"/><path class="cls-1" d="M220.913,171.883a17.867,17.867,0,0,0-1.3,5" transform="translate(-208.5 -151.883)"/><path class="cls-1" d="M235.5,158.883V161a18,18,0,0,0-13,7.933" transform="translate(-208.5 -151.883)"/><circle class="cls-1" cx="29" cy="27" r="3"/><line class="cls-1" x1="31" y1="25" x2="39" y2="17"/><line class="cls-1" x1="46" y1="12" x2="43" y2="9"/><line class="cls-1" x1="41" y1="14" x2="44" y2="11"/><path class="cls-1" d="M249.627,171.882a14,14,0,0,1-12.127,21h-4" transform="translate(-208.5 -151.883)"/><line class="cls-1" x1="12" y1="45" x2="10" y2="45"/></svg>