<svg xmlns="http://www.w3.org/2000/svg" width="42" height="40" viewBox="0 0 42 40"><path fill="#ff9f00" d="M40.3 14.83A19.87 19.87 0 0 0 21.07 0 20.1 20.1 0 0 0 3.67 10 19.87 19.87 0 0 0 1.7 25.16a19.87 19.87 0 0 0 11.28 13.16h-.3a.83.83 0 0 0 0 1.67h16.67a.83.83 0 0 0 0-1.67h-.37a19.88 19.88 0 0 0 11.34-23.5zm-3.42 14.34a18.43 18.43 0 0 1-25.05 6.72 18.37 18.37 0 0 1-6.71-25.06A18.43 18.43 0 0 1 30.17 4.1a18.21 18.21 0 0 1 8.52 11.15c1.28 4.74.63 9.69-1.8 13.91zM17.12 34.5A15.05 15.05 0 0 1 6.5 23.88a.83.83 0 1 0-1.6.44 16.73 16.73 0 0 0 11.78 11.8l.22.02a.83.83 0 0 0 .22-1.64zm8.2-30.61a.83.83 0 0 0-.44 1.61A15.05 15.05 0 0 1 35.5 16.12a.83.83 0 1 0 1.6-.44 16.73 16.73 0 0 0-11.78-11.8zM20.5 35l-.62-.03a.83.83 0 1 0-.13 1.66l.7.04h.02A.83.83 0 0 0 20.5 35zm1-30l.62.03h.07a.83.83 0 0 0 .06-1.66l-.7-.04A.83.83 0 0 0 21.5 5zm7.93 10.27h-4.45c.36-1.7.6-3.5-.37-4.82-.64-.89-1.74-1.41-3.27-1.56h-.16c-.87 0-1.62.68-1.7 1.55-.29 3-1.1 4.68-1.93 5.43a.83.83 0 0 0-.8-.6h-5.3a.83.83 0 0 0-.83.83v10.84c0 .46.37.84.83.84h5.3c.39 0 .71-.27.8-.63.63.4 1.41.63 2.32.63h8.8c.9 0 1.63-.69 1.73-1.64l.97-8.56c.07-.68-.1-1.28-.47-1.7-.25-.28-.7-.61-1.47-.61zM15.92 26.1h-3.64v-5.84h1.82a.83.83 0 0 0 0-1.67h-1.82v-1.67h3.64zM29.7 17.4l-.96 8.56c-.02.1-.06.15-.07.16h-8.81c-2 0-2.29-1.46-2.29-2.33V17.8a4.25 4.25 0 0 0 1.84-1.56c.9-1.29 1.48-3.18 1.72-5.64 0-.02.02-.04.05-.04 1.02.1 1.72.4 2.07.88.67.92.27 2.68-.07 4.23l-.06.26a.83.83 0 0 0 .81 1.01h5.49c.1 0 .2.02.22.06.05.04.08.2.06.4z"/></svg>