<svg xmlns="http://www.w3.org/2000/svg" width="21" height="30" viewBox="0 0 21 30"><defs><clipPath id="a"><path fill="#fff" d="M1027.92 69.08a10.42 10.42 0 0 0-7.42-3.08 10.4 10.4 0 0 0-7.42 3.08c-3.67 3.67-4.13 10.58-.99 14.76L1020.5 96l8.4-12.14c3.15-4.2 2.69-11.11-.98-14.78zm-7.32 11.16a3.84 3.84 0 1 1 0-7.68 3.84 3.84 0 0 1 0 7.68z"/></clipPath></defs><path fill="#fff" d="M17.92 3.08A10.42 10.42 0 0 0 10.5 0a10.4 10.4 0 0 0-7.42 3.08c-3.67 3.67-4.13 10.58-.99 14.76L10.5 30l8.4-12.14c3.15-4.2 2.69-11.11-.98-14.78zM10.6 14.24a3.84 3.84 0 1 1 0-7.68 3.84 3.84 0 0 1 0 7.68z"/><path fill="none" stroke="#666" stroke-linecap="round" stroke-linejoin="round" stroke-miterlimit="50" stroke-width="2" d="M1027.92 69.08a10.42 10.42 0 0 0-7.42-3.08 10.4 10.4 0 0 0-7.42 3.08c-3.67 3.67-4.13 10.58-.99 14.76L1020.5 96l8.4-12.14c3.15-4.2 2.69-11.11-.98-14.78zm-7.32 11.16a3.84 3.84 0 1 1 0-7.68 3.84 3.84 0 0 1 0 7.68z" clip-path="url(&quot;#a&quot;)" transform="translate(-1010 -66)"/></svg>