<svg xmlns="http://www.w3.org/2000/svg" width="55" height="54" viewBox="0 0 55 54"><path fill="#fff" fill-opacity=".5" d="M45.06 25.01a1 1 0 1 1 0 1.99 1 1 0 1 1 0-1.99zm-36.03 0a1 1 0 1 1 0 1.99 1 1 0 1 1 0-1.99zm3 2.99a1 1 0 1 1 0 1.99 1 1 0 1 1 0-1.99zm6.01 0a1 1 0 1 1 0 1.99 1 1 0 1 1 0-1.99zm-3.01 2.98a1 1 0 0 1 0 1.99 1 1 0 1 1 0-1.99zm6.01 0a1 1 0 1 1 0 1.99 1 1 0 1 1 0-1.99zm3 2.98a1 1 0 1 1 0 1.99 1 1 0 1 1 0-1.99zm6.01 0a1 1 0 1 1 0 1.99 1 1 0 0 1 0-1.99zm3-2.98a1 1 0 1 1 0 1.99 1 1 0 1 1 0-1.99zm-6.01 5.97a1 1 0 0 1 0 1.99 1 1 0 1 1 0-1.99zM36.05 28a1 1 0 1 1 0 1.99 1 1 0 1 1 0-1.99zm6.01 0a1 1 0 1 1 0 1.99 1 1 0 0 1-1.01-1 1 1 0 0 1 1.01-.99zm-3.01 2.98a1 1 0 0 1 0 1.99 1 1 0 1 1 0-1.99zm6.36 1.92l-.07.04L55 38.39 27.5 54 0 38.39l9.66-5.45L0 27.45 9.66 22 0 16.51 27.5.99 55 16.51 45.33 22 55 27.45l-9.4 5.34-.19.11zM4.05 16.52L27.5 29.83l15.81-8.97 7.64-4.34L27.5 3.28zm-.01 10.94l1.36.77a1 1 0 0 1 1.63.76c0 .05-.03.09-.03.14l10.06 5.72c.06-.5.46-.89.98-.89a1 1 0 0 1 1 1c0 .32-.17.6-.41.78l2.2 1.25a.78.78 0 0 1 .21-.04c.45 0 .81.29.94.69l5.52 3.13 4.59-2.6c-.01-.08-.04-.15-.04-.23a1 1 0 0 1 1.69-.71l2.27-1.29a1 1 0 0 1-.96-.98 1 1 0 0 1 1-1 1 1 0 0 1 1 1c0 .17-.05.33-.13.47l6.39-3.63 3.95-2.25a.93.93 0 0 1-.2-.56 1 1 0 0 1 1-1 1 1 0 0 1 .91.59l1.98-1.12-7.64-4.32-.32.19a1 1 0 0 1-.93.69c-.08 0-.14-.03-.21-.04l-2.2 1.25c.24.18.4.45.4.78a1 1 0 0 1-1 .99.98.98 0 0 1-.97-.88l-10.06 5.71.02.14a1 1 0 0 1-1 1 1 1 0 0 1-1-1c0-.21.08-.4.2-.56L15.9 25.54c.08.14.13.29.13.47 0 .55-.44.99-1 .99a1 1 0 0 1-1-.99 1 1 0 0 1 .96-.99l-2.27-1.28a.98.98 0 0 1-1.58-.29zm39.27 6.63L27.5 43.06l-15.82-8.97-7.63 4.31L27.5 51.71 50.95 38.4z"/></svg>