<svg xmlns="http://www.w3.org/2000/svg" width="40" height="58" viewBox="0 0 40 58"><path fill="#fff" fill-opacity=".5" d="M20 30a4 4 0 0 0-4 4v6a4 4 0 1 0 8 0v-6a4 4 0 0 0-4-4zm2 10a2 2 0 0 1-2 2 2 2 0 0 1-2-2v-6c0-1.1.9-2 2-2a2 2 0 0 1 2 2zm9-18.69V10.22C31 4.58 26.06 0 20 0S9 4.58 9 10.22a1 1 0 0 0 1 1 1 1 0 0 0 1-1C11 5.69 15.04 2 20 2s9 3.69 9 8.22v9.94l-.57-.27a16 16 0 0 0-1.98-.8l-.79-.26c-.43-.13-.88-.24-1.32-.34l-.58-.12c-.53-.1-1.05-.19-1.58-.24l-.36-.04A20.02 20.02 0 0 0 0 38c0 11.03 8.97 20 20 20s20-8.97 20-20a20 20 0 0 0-9-16.69zM20 56c-9.93 0-18-8.08-18-18a18.02 18.02 0 0 1 19.6-17.92l.51.06a13.73 13.73 0 0 1 1.89.32 19.54 19.54 0 0 1 2.38.73A18 18 0 0 1 38 38c0 9.92-8.08 18-18 18z"/></svg>