<svg xmlns="http://www.w3.org/2000/svg" width="189" height="78" viewBox="0 0 189 78">
  <defs>
    <style>
      .cls-1 {
        fill: #404144;
      }

      .cls-1, .cls-2 {
        fill-rule: evenodd;
      }

      .cls-2 {
        fill: #ff6700;
      }
    </style>
  </defs>
  <path class="cls-1" d="M45.791,0.944C40.262-1.875,34.8.553,32.674,23.213c-0.954,10.393-1.319,16.66-1.126,20.447a31.124,31.124,0,0,0-9.17,0c0.193-3.787-.122-10.054-1-20.447C19.405,0.574,13.775-1.875,8.226.944c-5.529,2.82-10.3,11.783-7.3,23,1.917,7.142,7.466,18.091,11.423,23.339C4.686,52.089,1.287,60.4,2.789,66.783,4.25,72.927,13.877,78,26.973,78s22.845-5.176,24.184-11.217c1.41-6.359-1.938-14.623-9.526-19.459,3.946-5.248,9.526-16.228,11.443-23.39C56.067,12.717,51.32,3.764,45.791.944M8.946,25.642C7.293,17.461,9,11.286,11.249,9.588s4.717,0.36,6.3,16.661c0.933,9.5,1.461,12.925,1.441,18.122-1.126.288-2.343,0.8-3.084,1.07-0.243-.412-0.213-0.36-0.619-1.091-1.8-3.118-5.143-12.781-6.34-18.708M44.33,59.426c0,1.647-8.359,4.569-17.388,4.569S9.555,61.124,9.555,59.426C9.575,55.1,16.423,48.96,26.943,48.96s17.388,6.2,17.388,10.465m0.619-33.784c-1.2,5.927-4.545,15.59-6.32,18.7-0.406.731-.386,0.679-0.619,1.091-0.741-.268-1.968-0.782-3.084-1.07-0.02-5.2.507-8.624,1.441-18.121,1.593-16.29,4.058-18.348,6.29-16.65s3.926,7.841,2.293,16.053"/>
  <path class="cls-1" d="M105.465,29.584c0.344,1.194-.163,1.5-1.376,1.5a7.735,7.735,0,0,1-3.551-.9c-0.725-.38-2.047-1.754-2.953-1.5-0.38.127-.634,0.344-0.6,1.7a6.346,6.346,0,0,0,2.174,4.268,10.318,10.318,0,0,0,6.92,2.261c3.044,0,6.159-1.827,6.159-6.059,0-6.782-8.858-3.979-8.713-9.1a3.133,3.133,0,0,1,2.989-2.948c1.1,0,1.63.94,1.033,2.948-0.435,1.411-.345,2.134,1.286,2.441a3.936,3.936,0,0,0,1.793.344,2.8,2.8,0,0,0,1.449-1.573,12.153,12.153,0,0,0,1.5-5.335c0.163-1.375-.978-2.387-2.228-2.894a12.968,12.968,0,0,0-5.725-1.32c-3.8,0-8.423,3.581-8.423,8.446,0.091,6.312,7.626,5.462,8.26,7.723M117.4,19.709c0.978-.09,2.138-0.127,3.37-0.127a131.512,131.512,0,0,0-1.232,14,1.545,1.545,0,0,0,.344,1.067,7.416,7.416,0,0,0,5.054,2.044c0.815,0.036,1.232-.814,1.232-2.224a102.97,102.97,0,0,1,.906-12.515c0.036-.687.163-2.3-1.631-2.568h-0.163a60.39,60.39,0,0,1,7.446.506,1.024,1.024,0,0,0,1.068-1.411c-0.6-2.1-1.63-4.178-2.3-4.521a24.586,24.586,0,0,0-4.149-.344,107.464,107.464,0,0,0-12.825.163c-0.471.036-.471,0.47-0.435,1.031a8.236,8.236,0,0,0,1.377,3.671c0.616,0.814.743,1.157,1.938,1.23m24.746-6.095c-4.656,0-8.333,6.023-8.333,13.745,0,5.118,2.228,7.632,3.55,8.5a12.62,12.62,0,0,0,6.123,1.375c4.656,0,8.333-6.023,8.333-13.745,0-5.082-2.174-7.6-3.514-8.446a12.909,12.909,0,0,0-6.159-1.429m1.195,4.992c0.978,0,1.92.687,1.92,4.106,0,5.426-1.231,8.573-1.884,9.133a1.509,1.509,0,0,1-1.159.38c-0.978,0-1.92-.723-1.92-4.051,0-5.426,1.232-8.573,1.884-9.224a1.462,1.462,0,0,1,1.159-.344m10.434-.561a15.1,15.1,0,0,0,1.45,2.514,0.035,0.035,0,0,0,.036.036A91.507,91.507,0,0,0,154.1,33.02a1.545,1.545,0,0,0,.344,1.067,6.791,6.791,0,0,0,4.909,2.134,0.625,0.625,0,0,0,.725-0.687c0.163-3.545.344-6.113,0.561-8.193,1.323,3.635,3.985,8.971,5.471,9.007,1.377,0.036,3.587-2.3,4.185-3.292,0.344-.6.561-1.157,0.036-1.628a40.044,40.044,0,0,1-4.058-4.3c2.826-1.374,3.8-4.142,3.8-7.813a4.582,4.582,0,0,0-1.576-3.581c-0.851-.47-4.4-2.134-5.905-2.134-3.678,0-7.862,2.568-8.641,3.165a1.222,1.222,0,0,0-.182,1.284m7.609,3.509a1.565,1.565,0,0,0-1.069-1.754,2.427,2.427,0,0,0-.562-0.09,4.181,4.181,0,0,1,2.265-.9,2.323,2.323,0,0,1,2.572,2.3,4.754,4.754,0,0,1-3.768,4.395c0.181-1.375.363-2.622,0.562-3.943M184.774,26.8a1.447,1.447,0,0,0,.941-0.814c0.345-.85.816-3.364-0.036-3.671a12.593,12.593,0,0,0-5.6.163c0.126-.814.308-1.537,0.434-2.261A1.715,1.715,0,0,0,180.553,20a1.47,1.47,0,0,0-.725-1.1,1.9,1.9,0,0,0-1.159-.217c2.608-.633,5.217-0.47,8.93-0.47a1.447,1.447,0,0,0,.942-0.814c0.345-.85.816-3.418,0.037-3.925A5.524,5.524,0,0,0,186.1,13c-4.837,0-10.126.434-12.445,2.387a1.96,1.96,0,0,0-.725,1.664,21,21,0,0,0,1.033,2.731l0.09,0.09a0.086,0.086,0,0,0-.036.09,59.784,59.784,0,0,0-1.757,12.588,3.311,3.311,0,0,0,.163,1.157,3.146,3.146,0,0,0,.471,1.067c1.63,1.917,4.873,2.134,7.989,1.574,2.264-.38,4.529-0.163,5.38-0.633a2.033,2.033,0,0,0,1.069-1.5c0.217-.977.688-1.5,0.09-3.075a1.047,1.047,0,0,0-1.105-.506,29.972,29.972,0,0,0-7.047.85c-0.941.09-.561-0.253-0.561-0.941,0.163-1.23.344-2.3,0.471-3.292a27.209,27.209,0,0,1,5.6-.452M68.184,52.808c0-4.829,4.583-8.374,8.333-8.374a12.736,12.736,0,0,1,5.688,1.32c1.2,0.506,2.355,1.537,2.174,2.894a12.123,12.123,0,0,1-1.449,5.335,2.722,2.722,0,0,1-1.449,1.574,3.9,3.9,0,0,1-1.793-.344c-1.576-.307-1.7-1.031-1.286-2.442,0.562-2.008.091-2.948-1.032-2.948a3.074,3.074,0,0,0-2.953,2.948c-0.163,5.082,8.641,2.3,8.641,9.043,0,4.178-3.079,6.023-6.123,6.023a10.087,10.087,0,0,1-6.884-2.261,6.268,6.268,0,0,1-2.174-4.232c-0.036-1.32.217-1.573,0.6-1.7,0.906-.308,2.228,1.067,2.953,1.447a7.854,7.854,0,0,0,3.514.9c1.2,0,1.7-.307,1.322-1.5-0.6-2.225-8.079-1.411-8.079-7.687m24.456,5.5c-0.163.977-.308,2.044-0.471,3.291,0,0.687-.38,1.031.561,0.941a29.083,29.083,0,0,1,6.974-.814,1.048,1.048,0,0,1,1.105.506c0.561,1.574.127,2.044-.091,3.075a1.916,1.916,0,0,1-1.069,1.447c-0.851.47-3.116,0.253-5.344,0.633-3.08.561-6.322,0.344-7.953-1.573a4,4,0,0,1-.435-1.067,4.464,4.464,0,0,1-.163-1.157,61.936,61.936,0,0,1,1.7-12.515,0.117,0.117,0,0,1,.036-0.09l-0.091-.09A22.446,22.446,0,0,1,86.372,48.2a2.008,2.008,0,0,1,.688-1.664c2.264-1.971,7.518-2.387,12.355-2.387a5.241,5.241,0,0,1,2.445.434c0.725,0.506.254,3.038-.036,3.888a1.447,1.447,0,0,1-.942.814c-3.713,0-6.286-.163-8.858.47a1.8,1.8,0,0,1,1.159.217,1.453,1.453,0,0,1,.688,1.067c0,0.036-.036.127-0.036,0.163-0.127.687-.308,1.447-0.435,2.225,1.884-.344,4.058-0.633,5.561-0.163,0.851,0.308.38,2.767,0.036,3.635a1.448,1.448,0,0,1-.942.814,22.086,22.086,0,0,0-5.416.6m10.905-10.454c0.761-.6,4.909-3.165,8.587-3.165,1.5,0,5.054,1.664,5.851,2.1a4.612,4.612,0,0,1,1.576,3.581c0,3.671-.942,6.438-3.768,7.777a36.826,36.826,0,0,0,4.058,4.3,1.2,1.2,0,0,1-.036,1.628c-0.6.94-2.826,3.292-4.185,3.237-1.5-.036-4.148-5.335-5.471-8.971-0.217,2.044-.38,4.576-0.561,8.1a0.657,0.657,0,0,1-.725.687A6.841,6.841,0,0,1,104,65a1.731,1.731,0,0,1-.308-1.067A88.181,88.181,0,0,1,104.849,51.6a0.035,0.035,0,0,0-.036-0.036,15.094,15.094,0,0,1-1.449-2.514,0.976,0.976,0,0,1,.181-1.194m6.793,8.573a4.647,4.647,0,0,0,3.714-4.359,2.314,2.314,0,0,0-2.572-2.3,3.849,3.849,0,0,0-2.229.9,1.827,1.827,0,0,1,.562.09,1.587,1.587,0,0,1,1.069,1.754c-0.163,1.3-.363,2.55-0.544,3.906m30.615-8.79c-1.576,5.172-4.837,16.187-6.721,19.641a0.569,0.569,0,0,1-.761.307,17.947,17.947,0,0,1-3.46-.253h-0.163a10.681,10.681,0,0,1-4.275-1.7,1.6,1.6,0,0,1-.724-1.194c-0.091-.941-1.16-5.589-2.229-12.642-0.561-3.635-.815-5.643-0.815-6.059a1.432,1.432,0,0,1,1.286-1.32c2.047,0,4.71.977,5.435,1.971,0.471,0.687,1.322,8.446,1.757,14.306,1.5-5.046,2.645-11.231,3.985-15.536,0.127-.434.163-0.723,0.634-0.723a9.6,9.6,0,0,1,5.779,2.17,1.062,1.062,0,0,1,.272,1.031m7.536,19.3a0.64,0.64,0,0,1-.725.687c-2.137,0-4.71-1.067-5.471-2.008a1.731,1.731,0,0,1-.308-1.067,141.035,141.035,0,0,1,2.174-19.515,0.678,0.678,0,0,1,.761-0.6,22.522,22.522,0,0,1,4.873.76,0.8,0.8,0,0,1,.689.94,143.922,143.922,0,0,0-1.993,20.8m12.1-16.983c-0.6.633-1.7,3.762-1.7,9.133,0,3.328,1.576,3.2,2.572,3.2a4.776,4.776,0,0,0,2.573-1.374c0.634-.506,2.518-3.237,3.586-1.32l0.942,2.387a2.7,2.7,0,0,1-.434,2.6c-1.45,1.754-2.9,3.418-6.721,3.418-5.344,0-8.931-2.641-8.931-9.73,0-7.976,3.333-13.582,8.587-13.745a12.707,12.707,0,0,1,6.376,1.194c0.906,0.506,2.3.977,2.138,2.695a11.07,11.07,0,0,1-1.83,5.9c-0.308.434-.942,1.664-3.17,1.031-1.576-.307-1.63-0.814-1.195-2.225,0.561-2.008.036-3.581-1.413-3.581a1.671,1.671,0,0,0-1.377.416m17.445,8.356c-0.163.977-.308,2.044-0.471,3.291,0,0.687-.381,1.031.561,0.941a29.083,29.083,0,0,1,6.975-.814,1.048,1.048,0,0,1,1.105.506c0.561,1.574.126,2.044-.091,3.075a1.917,1.917,0,0,1-1.069,1.447c-0.851.47-3.116,0.253-5.344,0.633-3.079.561-6.322,0.344-7.952-1.573a3.986,3.986,0,0,1-.435-1.067,4.443,4.443,0,0,1-.163-1.157,61.92,61.92,0,0,1,1.7-12.515,0.117,0.117,0,0,1,.036-0.09l-0.091-.09a22.454,22.454,0,0,1-1.032-2.695,2.006,2.006,0,0,1,.688-1.664c2.265-1.971,7.518-2.387,12.355-2.387a5.241,5.241,0,0,1,2.445.434c0.725,0.506.254,3.038-.036,3.888a1.449,1.449,0,0,1-.942.814c-3.714,0-6.286-.163-8.858.47a1.8,1.8,0,0,1,1.159.217,1.451,1.451,0,0,1,.688,1.067c0,0.036-.036.127-0.036,0.163-0.127.687-.308,1.447-0.435,2.225,1.884-.344,4.058-0.633,5.562-0.163,0.851,0.308.38,2.767,0.036,3.635a1.449,1.449,0,0,1-.942.814,22.184,22.184,0,0,0-5.416.6"/>
  <path id="Shape_531_copy" data-name="Shape 531 copy" class="cls-2" d="M85.883,18.642a2.26,2.26,0,0,0,.036-2.044,8.913,8.913,0,0,0-3.55-3.292,1.79,1.79,0,0,0-1.449.6,58.362,58.362,0,0,0-3.677,6.023c-0.761-3.2-1.757-6.529-2.572-6.529-1.377,0-4.583.9-5.434,1.881a1.43,1.43,0,0,0-.036,1.7,46.591,46.591,0,0,0,3.641,7.433,73.31,73.31,0,0,0-5.561,7.56,2.083,2.083,0,0,0-.036,2.008,9.27,9.27,0,0,0,3.8,2.767,0.822,0.822,0,0,0,1.105-.344c1.069-1.7,2.645-4.7,3.931-7.18C77.025,32.767,78.438,37,79.38,37c1.377,0,3.931-1.628,4.837-2.568a1.43,1.43,0,0,0,.036-1.7,45.513,45.513,0,0,0-3.714-7.849c1.721-1.917,4.746-5.335,5.344-6.24m9.8-3.49a0.833,0.833,0,0,0-.688-0.977,21.473,21.473,0,0,0-4.909-.76,0.715,0.715,0,0,0-.761.6,143.885,143.885,0,0,0-2.174,19.677,1.546,1.546,0,0,0,.344,1.067c0.761,0.977,3.333,2.008,5.471,2.008a0.624,0.624,0,0,0,.725-0.687,153.35,153.35,0,0,1,1.993-20.925"/>
</svg>
