<svg width="27" height="27" viewBox="0 0 27 27" version="1.1" xmlns="http://www.w3.org/2000/svg" xmlns:xlink="http://www.w3.org/1999/xlink" xmlns:figma="http://www.figma.com/figma/ns">
<title>Shape</title>
<desc>Created using Figma</desc>
<g id="Canvas" transform="translate(-2079 2955)" figma:type="canvas">
<rect x="2079" y="-2955" width="27" height="27" fill="#FFFFFF"/>
<mask id="mask0_alpha" mask-type="alpha">
<path d="M 1311 -3009L 2751 -3009L 2751 3285L 1311 3285L 1311 -3009Z" fill="#FFFFFF"/>
</mask>
<g id="item page (select model - description) modification" mask="url(#mask0_alpha)" figma:type="frame">
<path d="M 1311 -3009L 2751 -3009L 2751 3285L 1311 3285L 1311 -3009Z" fill="#FFFFFF"/>
<g id="header-new" figma:type="instance">
<g id="header" figma:type="frame">
<g id="header" figma:type="frame">
<g id="critique-social-phone (defalt)" figma:type="frame">
<g id="Shape" figma:type="vector">
<use xlink:href="#path0_fill" transform="translate(2080.41 -2953.61)" fill="#FFFFFF"/>
<use xlink:href="#path1_stroke" transform="translate(2080.41 -2953.61)" fill="#757575"/>
</g>
</g>
<g id="critique-social-phone (hover)" figma:type="frame">
<g id="Shape" figma:type="vector">
<use xlink:href="#path0_fill" transform="translate(2080.41 -2953.61)" fill="#FFFFFF"/>
<use xlink:href="#path1_stroke" transform="translate(2080.41 -2953.61)" fill="#757575"/>
</g>
</g>
</g>
</g>
</g>
</g>
</g>
<defs>
<path id="path0_fill" fill-rule="evenodd" d="M 23.3715 22.289C 21.8568 24.1187 20.9858 24.1187 19.4105 24.1187C 17.873 24.1187 15.4874 23.0602 13.0335 21.2985C 10.6857 19.6049 9.6405 18.8262 7.28509 16.4143C 4.79336 13.8664 3.22562 11.7418 1.49883 8.58898C -0.326424 5.2547 -0.121935 3.79548 0.249173 2.59333C 0.446088 1.95067 1.03683 1.26264 1.83964 0.763633C 1.87751 0.740951 1.91538 0.710708 1.96082 0.688026C 2.36222 0.430961 3.0287 0 3.75577 0C 4.36166 0 4.89939 0.302429 5.4144 0.929969L 5.49014 1.0207C 7.42142 3.37964 8.92857 5.4664 7.79253 7.00879C 6.98972 8.08997 6.56559 8.82336 6.63376 9.57943C 6.69435 10.3128 7.18663 10.8648 7.92885 11.6964L 7.98187 11.7569C 9.20122 13.133 9.54961 13.4959 10.0343 13.9873C 10.1176 14.0705 10.2009 14.1612 10.2994 14.2595L 10.4357 14.4032C 10.9962 14.9853 11.3067 15.3029 12.7305 16.5504L 12.8139 16.626C 13.4197 17.1553 13.8666 17.5409 14.5179 17.5409C 15.192 17.5409 15.9342 17.1175 17.3429 16.2177C 17.4868 16.127 17.6913 16.0741 17.9488 16.0741C 19.5923 16.0741 22.4248 17.9491 23.417 18.9698C 24.3258 19.8923 24.7802 20.5878 23.3715 22.289L 23.3715 22.289Z"/>
<path id="path1_stroke" d="M 13.0335 21.2985L 12.741 21.7041L 12.7419 21.7047L 13.0335 21.2985ZM 7.28509 16.4143L 7.64281 16.065L 7.64257 16.0647L 7.28509 16.4143ZM 1.49883 8.58898L 1.06024 8.82907L 1.06029 8.82916L 1.49883 8.58898ZM 0.249173 2.59333L 0.726928 2.74081L 0.727236 2.73981L 0.249173 2.59333ZM 1.83964 0.763633L 1.58268 0.334634L 1.57569 0.338982L 1.83964 0.763633ZM 1.96082 0.688026L 2.18412 1.13539L 2.208 1.12347L 2.23047 1.10908L 1.96082 0.688026ZM 5.4144 0.929969L 5.02788 1.24718L 5.03056 1.25038L 5.4144 0.929969ZM 5.49014 1.0207L 5.87703 0.703943L 5.87398 0.700282L 5.49014 1.0207ZM 7.79253 7.00879L 8.19396 7.30687L 8.19511 7.30531L 7.79253 7.00879ZM 6.63376 9.57943L 7.13207 9.53826L 7.13174 9.53454L 6.63376 9.57943ZM 7.92885 11.6964L 8.30488 11.3669L 8.3019 11.3635L 7.92885 11.6964ZM 7.98187 11.7569L 7.60585 12.0865L 7.60765 12.0885L 7.98187 11.7569ZM 10.0343 13.9873L 9.67833 14.3384L 9.68107 14.3412L 10.0343 13.9873ZM 10.2994 14.2595L 10.6622 13.9152L 10.6527 13.9057L 10.2994 14.2595ZM 10.4357 14.4032L 10.073 14.7474L 10.0755 14.7499L 10.4357 14.4032ZM 12.7305 16.5504L 13.0666 16.1801L 13.06 16.1743L 12.7305 16.5504ZM 12.8139 16.626L 12.4778 16.9963L 12.4849 17.0026L 12.8139 16.626ZM 17.3429 16.2177L 17.0762 15.7948L 17.0738 15.7964L 17.3429 16.2177ZM 23.417 18.9698L 23.0584 19.3184L 23.0608 19.3208L 23.417 18.9698ZM 22.9864 21.9702C 22.2562 22.8522 21.7265 23.2369 21.2367 23.4224C 20.7197 23.6269 20.1982 23.6187 19.4105 23.6187L 19.4105 24.6187C 20.1982 24.6187 20.8997 24.6105 21.5908 24.3576C 22.309 24.0856 22.9721 23.5555 23.7567 22.6078L 22.9864 21.9702ZM 19.4105 23.6187C 18.0393 23.6187 15.7636 22.643 13.3251 20.8924L 12.7419 21.7047C 15.2111 23.4774 17.7068 24.6187 19.4105 24.6187L 19.4105 23.6187ZM 13.326 20.893C 10.9813 19.2017 9.96974 18.4499 7.64281 16.065L 6.92738 16.7637C 9.31125 19.2025 10.39 20.0082 12.741 21.7041L 13.326 20.893ZM 7.64257 16.0647C 5.17417 13.5424 3.647 11.4727 1.93736 8.34879L 1.06029 8.82916C 2.80423 12.0109 4.41255 14.1904 6.92762 16.7639L 7.64257 16.0647ZM 1.93741 8.34889C 1.04124 6.7118 0.664784 5.57285 0.545523 4.72219C 0.41938 3.87817 0.547298 3.32111 0.726927 2.74081L -0.22858 2.44584C -0.42006 3.0677 -0.579941 3.84133 -0.444792 4.86103C -0.302763 5.87408 0.131165 7.13188 1.06024 8.82907L 1.93741 8.34889ZM 0.727236 2.73981C 0.877604 2.24906 1.36572 1.64693 2.10359 1.18828L 1.57569 0.338982C 0.707941 0.878353 0.0145722 1.65228 -0.228889 2.44685L 0.727236 2.73981ZM 2.09656 1.19257C 2.11369 1.18222 2.13317 1.16967 2.14518 1.16168C 2.15709 1.15375 2.16679 1.14714 2.17441 1.14207C 2.1896 1.13196 2.18977 1.13257 2.18412 1.13539L 1.73752 0.240659C 1.68643 0.26616 1.64494 0.293232 1.62037 0.309586C 1.59578 0.325989 1.57869 0.336745 1.58271 0.334693L 2.09656 1.19257ZM 2.23047 1.10908C 2.65417 0.837736 3.19867 0.5 3.75577 0.5L 3.75577 -0.5C 2.85874 -0.5 2.07027 0.0241862 1.69117 0.266969L 2.23047 1.10908ZM 3.75577 0.5C 4.16448 0.5 4.57296 0.692821 5.0279 1.24717L 5.80091 0.612772C 5.22583 -0.0879632 4.55885 -0.5 3.75577 -0.5L 3.75577 0.5ZM 5.03056 1.25038L 5.1063 1.34111L 5.87398 0.700282L 5.79824 0.609554L 5.03056 1.25038ZM 5.10326 1.33744C 6.06455 2.51152 6.88901 3.57276 7.33938 4.53429C 7.78204 5.47257 7.79833 6.1578 7.38994 6.71226L 8.19511 7.30531C 8.92277 6.31738 8.7535 5.18804 8.24378 4.10761C 7.74176 3.05043 6.84701 1.88882 5.87702 0.703957L 5.10326 1.33744ZM 7.39109 6.71071C 6.60457 7.76996 6.04809 8.65169 6.13578 9.62433L 7.13174 9.53454C 7.0831 8.99504 7.37487 8.40998 8.19396 7.30686L 7.39109 6.71071ZM 6.13546 9.6206C 6.21268 10.5553 6.85091 11.2395 7.5558 12.0294L 8.3019 11.3635C 7.52236 10.49 7.17602 10.0703 7.13206 9.53827L 6.13546 9.6206ZM 7.55284 12.026L 7.60586 12.0865L 8.35788 11.4274L 8.30486 11.3669L 7.55284 12.026ZM 7.60765 12.0885C 8.83369 13.472 9.19126 13.8446 9.67834 14.3384L 10.3903 13.6362C 9.90796 13.1472 9.56875 12.794 8.35608 11.4253L 7.60765 12.0885ZM 9.68107 14.3412C 9.75678 14.4166 9.84009 14.5073 9.94615 14.6134L 10.6527 13.9057C 10.5618 13.8151 10.4785 13.7244 10.3876 13.6335L 9.68107 14.3412ZM 9.93672 14.6037L 10.073 14.7474L 10.7984 14.059L 10.6621 13.9153L 9.93672 14.6037ZM 10.0755 14.7499C 10.6373 15.3335 10.9629 15.666 12.401 16.9265L 13.06 16.1743C 11.6504 14.9398 11.355 14.6372 10.7959 14.0564L 10.0755 14.7499ZM 12.3945 16.9207L 12.4778 16.9963L 13.1499 16.2558L 13.0666 16.1802L 12.3945 16.9207ZM 12.4849 17.0026C 13.059 17.5041 13.6471 18.0409 14.5179 18.0409L 14.5179 17.0409C 14.0861 17.0409 13.7805 16.8065 13.1428 16.2495L 12.4849 17.0026ZM 14.5179 18.0409C 14.9633 18.0409 15.3968 17.8998 15.8748 17.6658C 16.342 17.4364 16.9041 17.0913 17.612 16.6391L 17.0738 15.7964C 16.373 16.244 15.8596 16.5604 15.4351 16.7676C 15.0212 16.9703 14.7466 17.0409 14.5179 17.0409L 14.5179 18.0409ZM 17.6096 16.6407C 17.6501 16.6151 17.7534 16.5741 17.9488 16.5741L 17.9488 15.5741C 17.6292 15.5741 17.3235 15.6389 17.0762 15.7948L 17.6096 16.6407ZM 17.9488 16.5741C 18.6282 16.5741 19.6474 16.9804 20.678 17.5727C 21.6887 18.1525 22.5898 18.8341 23.0584 19.3184L 23.7755 18.6213C 23.252 18.0849 22.2407 17.3187 21.1763 16.7057C 20.1317 16.1053 18.9128 15.5741 17.9488 15.5741L 17.9488 16.5741ZM 23.0608 19.3208C 23.5256 19.7926 23.7347 20.0823 23.7659 20.3881C 23.7958 20.6819 23.6697 21.145 22.9864 21.9701L 23.7566 22.6079C 24.4821 21.7318 24.8331 20.9966 24.7607 20.2867C 24.6896 19.5888 24.2171 19.0695 23.7731 18.6189L 23.0608 19.3208Z"/>
</defs>
</svg>
