<svg xmlns="http://www.w3.org/2000/svg" width="17" height="23" viewBox="0 0 17 23"><path fill="#fff" d="M15.23 14.62V16c0 .46.33.84.77.9v-3.17a.9.9 0 0 0-.77.9zM16 16.9v.1c0 .5.6-.1.11-.1H16zm0-3.17h.11c.5 0-.11-.6-.11-.1zM9.73 1.01c-.5.05-.98.25-1.4.57-.24.18-.46.4-.64.65a3.94 3.94 0 0 0-.71 2.43l.01.2c.04.5.16.98.37 1.43l.11.22c.74 1.38 1.03 2.4 1.15 3.1a9.94 9.94 0 0 1-2.78-2.16 4.1 4.1 0 0 0-1.25-.75l-.18-.07a3.62 3.62 0 0 0-3.3.46A2.79 2.79 0 0 0 .02 9.75c.08.6.33 1.17.73 1.67a3.96 3.96 0 0 0 1.8 1.28c1.18.42 2.5.27 3.39-.42a2.88 2.88 0 0 0 .61-.64l2.26 1 1.3 7.52.02.08c.02.17.05.35.11.53.25.66.83 1.03 1.28 1.23.22.1.4.16.58.2l.44.1a.23.23 0 0 0 .28-.25l-1.01-8.2 2.85 1.2v-2.91l-3.27-1.58-.3-2.4c.28-.09.54-.23.78-.4a3.76 3.76 0 0 0 1.35-3.04 3.9 3.9 0 0 0-1.79-3.31 2.83 2.83 0 0 0-1.71-.4zm-4.65 9.53c-.07.1-.14.18-.24.25-.39.3-.95.32-1.35.24a2.26 2.26 0 0 1-1.37-.85c-.28-.4-.37-.85-.21-1.21a.96.96 0 0 1 .3-.4c.3-.22.77-.32 1.23-.26.61.09 1.18.43 1.52.9.23.34.4.9.12 1.33zm5.02-7.67c.2.02.41.12.6.27.4.34.67.92.7 1.55.02.51-.13 1.19-.62 1.56l-.05.04c-.36.24-.83.2-1.2-.1-.36-.3-.62-.78-.7-1.34V4.8c-.06-.52.05-1.24.53-1.67l.06-.06c.2-.15.44-.22.68-.2z"/></svg>