<svg xmlns="http://www.w3.org/2000/svg" width="58" height="60" viewBox="0 0 58 60"><path fill="#fff" fill-opacity=".5" d="M40.03 49a4 4 0 1 0 .01 8 4 4 0 0 0 0-8zm0 6a2 2 0 0 1 0-4 2 2 0 0 1 0 4zM36.04 5h4a1 1 0 0 0 0-2h-4a1 1 0 0 0 0 2zm6.99 0h1a1 1 0 0 0 0-2h-1a1 1 0 0 0 0 2zm9.58-5H27.46a4.4 4.4 0 0 0-4.4 4.4v9.54A14 14 0 0 0 14.08 27c0 3.26 1.13 6.25 3 8.63L.42 51.27a1 1 0 0 0 1.37 1.46l16.63-15.62a13.98 13.98 0 0 0 4.64 2.95V55.6a4.4 4.4 0 0 0 4.4 4.4H52.6a4.4 4.4 0 0 0 4.4-4.4V4.4A4.4 4.4 0 0 0 52.6 0zM27.46 2H52.6A2.4 2.4 0 0 1 55 4.4V6H25.06V4.4a2.4 2.4 0 0 1 2.4-2.4zM16.08 27a12 12 0 0 1 8.32-11.42l.47-.14a10.8 10.8 0 0 1 2.1-.39 12 12 0 1 1 0 23.89l-.4-.04a13.6 13.6 0 0 1-1.7-.34l-.47-.14A12 12 0 0 1 16.08 27zm10.28 13.89l.21.03a14 14 0 1 0 0-27.84l-.21.03c-.42.05-.84.12-1.25.21l-.05.01V8H55v38H25.06v-5.33l.05.01c.4.09.83.16 1.25.21zM52.6 58H27.46a2.4 2.4 0 0 1-2.4-2.4V48h29.95v7.6a2.4 2.4 0 0 1-2.4 2.4z"/></svg>