<svg xmlns="http://www.w3.org/2000/svg" width="35" height="42" viewBox="0 0 35 42"><path fill="#ff9f00" d="M34.13 7.44c-2.74 0-4.8-1.6-7-3.3C24.6 2.2 21.75 0 17.5 0c-4.25 0-7.1 2.2-9.63 4.15-2.2 1.69-4.26 3.29-7 3.29-.48 0-.87.39-.87.87 0 10.22 1.27 17.02 4.13 22.06 2.83 5 7.05 8.11 12.93 11.51a.88.88 0 0 0 .88 0c5.88-3.4 10.1-6.5 12.93-11.51C33.73 25.33 35 18.53 35 8.31c0-.48-.4-.87-.88-.87zM17.5 40.1C6.94 33.96 1.9 28.66 1.75 9.14c2.89-.29 5.07-1.97 7.2-3.6 2.4-1.87 4.9-3.79 8.55-3.79 3.65 0 6.15 1.92 8.56 3.78 2.12 1.64 4.3 3.32 7.19 3.61-.14 19.52-5.2 24.82-15.75 30.97zM7.16 10a.88.88 0 0 0-1.18-.36 17 17 0 0 1-.33.17.87.87 0 1 0 .77 1.57l.38-.2c.42-.22.59-.75.36-1.18zm23.1 6.87h.08c.45 0 .83-.34.87-.8l.03-.33a.88.88 0 0 0-1.74-.15l-.03.32c-.04.48.31.91.8.96zM8.9 9.69c.18 0 .36-.05.51-.17l1.48-1.1c2.23-1.7 4.16-3.17 6.62-3.17a.88.88 0 0 0 0-1.75c-3.05 0-5.3 1.71-7.68 3.53-.47.35-.95.72-1.44 1.07a.88.88 0 0 0 .51 1.59zm8.61 26.35c-2.24-1.38-4.94-3.24-6.97-5.63a.87.87 0 1 0-1.34 1.13c2.33 2.75 5.42 4.8 7.86 6.27h.01l.06.04.05.02.06.02.05.02h.05l.06.02H17.6l.06-.01.05-.01.05-.02.06-.02.05-.02.06-.03.01-.01c2.44-1.48 5.53-3.52 7.86-6.27 2.65-3.13 4.33-7.37 5.12-12.96a.87.87 0 0 0-1.74-.25c-.74 5.26-2.28 9.2-4.72 12.08-2.03 2.4-4.73 4.25-6.97 5.63zm5.65-25.1l-9.13 9.13-2.17-2.16a2.83 2.83 0 0 0-2-.83 2.85 2.85 0 0 0-2.01 4.85L12 26.11l.04.04.02.02.03.03.02.02.04.03.02.01.04.04h.01l.04.04.02.02.04.02.02.02.04.03h.01l.04.03.02.02.05.02.01.01.04.03.02.01.04.02.03.02.04.02h.01l.05.03.02.01.04.02.02.01.02.01.05.02.05.02.05.02.02.01.05.02h.02l.02.01a.4.4 0 0 0 .05.02l.04.01h.02l.05.02h.02l.04.02h.02l.05.01h.02l.05.01.02.01h.02l.05.01h.04l.02.01h.05l.02.01h.07l.04.01h.52l.03-.01h.06l.03-.01h.04l.05-.02h.04l.05-.02h.06l.03-.01.04-.02h.02l.05-.01.02-.01.04-.01.04-.02h.03l.02-.01.05-.02h.02l.04-.02.02-.01.04-.02.04-.02h.02l.03-.02.04-.02h.02l.04-.03.04-.02.02-.01.02-.01.04-.03.02-.01.05-.02.02-.02.04-.02.01-.01.04-.03.02-.01.04-.03.02-.02.04-.03h.02l.03-.04.04-.02.02-.02.02-.02.04-.03.01-.02.04-.03.02-.02.03-.03.02-.03 11.13-11.12a2.85 2.85 0 0 0-4.02-4.02zm2.78 2.8L14.8 24.86l-.08.08-.11.07-.15.08-.1.04-.15.03-.08.01h-.27-.01l-.15-.04-.09-.03-.16-.09-.15-.11-4.22-4.22a1.1 1.1 0 0 1 1.55-1.54l2.78 2.78a.87.87 0 0 0 1.24 0l9.75-9.75c.2-.2.48-.31.77-.31.3 0 .57.1.77.31a1.1 1.1 0 0 1 0 1.55z"/></svg>