<svg style="position: absolute; width: 0; height: 0; overflow: hidden;" version="1.1" xmlns="http://www.w3.org/2000/svg" preserveAspectRatio="xMinYMax">
<defs>
<symbol id="icon-shield" viewBox="0 0 27 32">
<title>shield</title>
<path fill="#ff9f00" style="fill: var(--color1, #ff9f00)" d="M26.004 5.669c-2.088 0-3.657-1.219-5.333-2.514-1.928-1.478-4.099-3.154-7.337-3.154s-5.41 1.676-7.337 3.162c-1.676 1.288-3.246 2.507-5.333 2.507-0.366 0-0.663 0.297-0.663 0.663 0 7.787 0.968 12.968 3.147 16.808 2.156 3.81 5.371 6.179 9.851 8.77 0.096 0.056 0.212 0.090 0.335 0.090s0.239-0.033 0.338-0.092c4.477-2.589 7.692-4.951 9.848-8.768 2.179-3.84 3.147-9.021 3.147-16.808 0-0.366-0.305-0.663-0.67-0.663zM13.333 30.552c-8.046-4.678-11.886-8.716-12-23.589 2.202-0.221 3.863-1.501 5.486-2.743 1.829-1.425 3.733-2.888 6.514-2.888s4.686 1.463 6.522 2.88c1.615 1.25 3.276 2.53 5.478 2.75-0.107 14.872-3.962 18.91-12 23.596zM5.455 7.619c-0.116-0.21-0.336-0.35-0.589-0.35-0.113 0-0.22 0.028-0.314 0.078-0.009 0.008-0.092 0.051-0.174 0.094-0.296 0.145-0.446 0.371-0.446 0.632 0 0.368 0.298 0.666 0.666 0.666 0.107 0 0.208-0.025 0.297-0.070l0.286-0.151c0.32-0.168 0.45-0.571 0.274-0.899zM23.055 12.853h0.061c0.343 0 0.632-0.259 0.663-0.61l0.023-0.251c-0.014-0.359-0.309-0.645-0.67-0.645-0.321 0-0.589 0.225-0.655 0.526l-0.024 0.248c-0.030 0.366 0.236 0.693 0.61 0.731zM6.781 7.383c0.137 0 0.274-0.038 0.389-0.13l1.128-0.838c1.699-1.295 3.17-2.415 5.044-2.415 0.338-0.037 0.599-0.321 0.599-0.667s-0.261-0.629-0.596-0.666c-2.327-0-4.041 1.303-5.854 2.689-0.358 0.267-0.724 0.549-1.097 0.815-0.167 0.123-0.274 0.32-0.274 0.541 0 0.368 0.296 0.666 0.663 0.67zM13.341 27.459c-1.707-1.051-3.764-2.469-5.31-4.29-0.123-0.146-0.306-0.237-0.51-0.237-0.369 0-0.668 0.299-0.668 0.668 0 0.164 0.059 0.315 0.158 0.431 1.774 2.094 4.129 3.656 5.988 4.776h0.008l0.046 0.030 0.038 0.015 0.046 0.015 0.038 0.015h0.038l0.046 0.015h0.152l0.046-0.008 0.038-0.008 0.038-0.015 0.046-0.015 0.038-0.015 0.046-0.023 0.008-0.008c1.859-1.128 4.213-2.682 5.989-4.777 2.019-2.385 3.299-5.615 3.901-9.874 0.004-0.029 0.007-0.062 0.007-0.095 0-0.37-0.3-0.67-0.67-0.67-0.336 0-0.615 0.248-0.662 0.571-0.564 4.011-1.738 7.013-3.597 9.207-1.547 1.829-3.604 3.238-5.31 4.29zM17.646 8.335l-6.956 6.956-1.653-1.646c-0.39-0.39-0.929-0.632-1.524-0.632-1.193 0.009-2.156 0.978-2.156 2.171 0 0.594 0.238 1.132 0.625 1.524l3.245 3.268 0.030 0.023 0.015 0.008 0.030 0.030h0.008l0.046 0.046 0.030 0.015 0.015 0.015 0.030 0.023h0.008l0.030 0.023 0.015 0.015 0.038 0.015 0.008 0.008 0.030 0.023 0.046 0.023 0.023 0.015 0.030 0.015h0.008l0.038 0.023 0.076 0.038 0.114 0.046 0.015 0.008 0.038 0.015h0.015l0.015 0.008c0.010 0.005 0.023 0.010 0.036 0.015l0.033 0.008h0.015l0.038 0.015h0.015l0.030 0.015h0.015l0.038 0.008h0.015l0.038 0.008 0.015 0.008h0.015l0.038 0.008h0.030l0.015 0.008h0.038l0.015 0.008h0.053l0.030 0.008h0.396l0.023-0.008h0.046l0.023-0.008h0.030l0.038-0.015h0.030l0.038-0.015h0.046l0.023-0.008 0.030-0.015h0.015l0.038-0.008 0.015-0.008 0.030-0.008 0.030-0.015h0.023l0.015-0.008 0.038-0.015h0.015l0.107-0.053h0.015l0.023-0.015 0.030-0.015h0.015l0.030-0.023 0.061-0.030 0.030-0.023 0.015-0.008 0.038-0.015 0.015-0.015 0.030-0.015 0.008-0.008 0.030-0.023 0.015-0.008 0.030-0.023 0.015-0.015 0.030-0.023h0.015l0.023-0.030 0.030-0.015 0.030-0.030 0.030-0.023 0.008-0.015 0.030-0.023 0.038-0.038 0.015-0.023 8.48-8.472c0.329-0.378 0.529-0.876 0.529-1.421 0-1.199-0.972-2.171-2.171-2.171-0.544 0-1.042 0.2-1.423 0.531zM19.764 10.469l-8.549 8.533-0.084 0.053-0.114 0.061-0.076 0.030-0.114 0.023-0.061 0.008h-0.213l-0.114-0.030-0.069-0.023-0.122-0.069-0.114-0.084-3.215-3.215c-0.111-0.141-0.179-0.321-0.179-0.517 0-0.463 0.375-0.838 0.838-0.838 0.198 0 0.38 0.069 0.523 0.183l2.116 2.117c0.12 0.122 0.287 0.198 0.472 0.198s0.352-0.076 0.472-0.198l7.429-7.429c0.152-0.152 0.366-0.236 0.587-0.236 0.229 0 0.434 0.076 0.587 0.236 0.15 0.151 0.243 0.36 0.243 0.59s-0.093 0.439-0.243 0.591z"></path>
</symbol>
<symbol id="icon-search_phone" viewBox="0 0 31 32">
<title>search_phone</title>
<path fill="#fff" opacity="0.5" style="fill: var(--color2, #fff)" d="M21.349 26.133c-1.177 0.002-2.131 0.956-2.131 2.133s0.955 2.133 2.133 2.133c0.001 0 0.002 0 0.003 0 1.178 0 2.133-0.955 2.133-2.133s-0.955-2.133-2.133-2.133zM21.349 29.333c-0.589 0-1.067-0.478-1.067-1.067s0.478-1.067 1.067-1.067c0.589 0 1.067 0.478 1.067 1.067s-0.478 1.067-1.067 1.067zM19.221 2.667h2.133c0.295 0 0.533-0.239 0.533-0.533s-0.239-0.533-0.533-0.533h-2.133c-0.295 0-0.533 0.239-0.533 0.533s0.239 0.533 0.533 0.533zM22.949 2.667h0.533c0.295 0 0.533-0.239 0.533-0.533s-0.239-0.533-0.533-0.533h-0.533c-0.295 0-0.533 0.239-0.533 0.533s0.239 0.533 0.533 0.533zM28.059 0h-13.413c-1.296 0-2.347 1.051-2.347 2.347v5.088c-2.824 1.106-4.787 3.806-4.789 6.965 0 1.739 0.603 3.334 1.6 4.603l-8.885 8.341c-0.104 0.098-0.169 0.236-0.169 0.389 0 0.295 0.239 0.534 0.534 0.534 0.141 0 0.27-0.055 0.366-0.145l8.869-8.33c0.691 0.664 1.514 1.197 2.424 1.556l0.051 8.306c0 1.296 1.051 2.347 2.347 2.347h13.408c1.296 0 2.347-1.051 2.347-2.347v-27.307c0-1.296-1.051-2.347-2.347-2.347zM14.645 1.067h13.408c0.707 0 1.28 0.573 1.28 1.28v0.853h-15.968v-0.853c0-0.707 0.573-1.28 1.28-1.28zM8.576 14.4c0-2.833 1.841-5.236 4.392-6.078l0.296-0.088c0.325-0.099 0.706-0.172 1.098-0.206 0.205-0.020 0.418-0.031 0.634-0.031 3.535 0 6.4 2.865 6.4 6.4s-2.865 6.4-6.4 6.4c-0.216 0-0.429-0.011-0.639-0.031l-0.187-0.019c-0.351-0.048-0.658-0.111-0.958-0.193l-0.2-0.063c-2.596-0.855-4.437-3.258-4.437-6.091zM14.059 21.808l0.112 0.016c0.239 0.027 0.516 0.043 0.797 0.043 4.124 0 7.467-3.343 7.467-7.467s-3.343-7.467-7.467-7.467c-0.281 0-0.558 0.016-0.831 0.046l-0.078 0.013c-0.224 0.027-0.448 0.064-0.667 0.112l-0.027 0.005v-2.843h15.968v20.267h-15.968v-2.843l0.027 0.005c0.213 0.048 0.443 0.085 0.667 0.112zM28.053 30.933h-13.408c-0.707 0-1.28-0.573-1.28-1.28v-4.053h15.973v4.053c0 0.707-0.573 1.28-1.28 1.28z"></path>
</symbol>
<symbol id="icon-logo" viewBox="0 0 78 32">
<title>logo</title>
<path fill="#404144" style="fill: var(--color3, #404144)" d="M18.786 0.387c-2.268-1.157-4.509-0.16-5.381 9.136-0.391 4.264-0.541 6.835-0.462 8.389-0.565-0.089-1.217-0.139-1.881-0.139s-1.316 0.051-1.952 0.148c0.15-1.563 0.021-4.134-0.339-8.398-0.809-9.288-3.119-10.293-5.396-9.136-2.268 1.157-4.226 4.834-2.995 9.436 0.786 2.93 3.063 7.422 4.686 9.575-3.144 1.972-4.538 5.381-3.922 8 0.599 2.521 4.549 4.602 9.922 4.602s9.372-2.123 9.922-4.602c0.578-2.609-0.795-5.999-3.908-7.983 1.619-2.153 3.908-6.658 4.695-9.596 1.228-4.602-0.72-8.275-2.988-9.432zM3.67 10.52c-0.678-3.356 0.022-5.89 0.945-6.586s1.935 0.148 2.585 6.835c0.383 3.897 0.599 5.303 0.591 7.435-0.462 0.118-0.961 0.328-1.265 0.439-0.1-0.169-0.087-0.148-0.254-0.448-0.738-1.279-2.11-5.244-2.601-7.675zM18.187 24.38c0 0.676-3.429 1.874-7.134 1.874s-7.133-1.178-7.133-1.874c0.008-1.775 2.818-4.294 7.134-4.294s7.134 2.544 7.134 4.293zM18.441 10.519c-0.492 2.432-1.865 6.396-2.593 7.672-0.167 0.3-0.158 0.279-0.254 0.448-0.304-0.11-0.807-0.321-1.265-0.439-0.008-2.133 0.208-3.538 0.591-7.434 0.654-6.683 1.665-7.527 2.58-6.831s1.611 3.217 0.941 6.586z"></path>
<path fill="#404144" style="fill: var(--color3, #404144)" d="M43.268 12.137c0.141 0.49-0.067 0.615-0.565 0.615-0.534-0.005-1.035-0.141-1.474-0.378-0.281-0.148-0.823-0.711-1.195-0.607-0.156 0.052-0.26 0.141-0.246 0.697 0.061 0.703 0.393 1.318 0.889 1.748 0.722 0.583 1.646 0.935 2.653 0.935 0.067 0 0.133-0.002 0.199-0.005 1.239 0 2.517-0.749 2.517-2.485 0-2.782-3.634-1.632-3.575-3.733 0.039-0.657 0.567-1.179 1.223-1.209 0.454-0 0.672 0.386 0.427 1.209-0.178 0.579-0.142 0.876 0.528 1.001 0.195 0.090 0.423 0.143 0.664 0.143 0.025 0 0.050-0.001 0.075-0.002 0.272-0.13 0.483-0.358 0.588-0.637 0.358-0.64 0.581-1.388 0.618-2.186 0.067-0.575-0.401-0.99-0.914-1.198-0.683-0.342-1.487-0.542-2.339-0.542-0.004 0-0.007 0-0.011 0-1.558 0-3.455 1.469-3.455 3.465 0.037 2.59 3.129 2.241 3.389 3.168zM48.164 8.086c0.401-0.037 0.877-0.052 1.383-0.052-0.25 1.656-0.432 3.639-0.503 5.65-0.003 0.105-0.004 0.118-0.004 0.131 0 0.152 0.054 0.292 0.143 0.401 0.538 0.513 1.268 0.831 2.071 0.837 0.336 0.015 0.507-0.334 0.507-0.912 0.021-1.832 0.156-3.61 0.397-5.355-0.010-0.061 0.042-0.723-0.694-0.833h-0.067c1.084 0.007 2.143 0.082 3.182 0.222-0.112-0.012-0.095-0.011-0.077-0.011 0.232 0 0.42-0.188 0.42-0.42 0-0.058-0.012-0.114-0.033-0.165-0.245-0.859-0.668-1.711-0.943-1.852-0.506-0.090-1.088-0.141-1.682-0.141-0.007 0-0.014 0-0.022 0-0.617-0.031-1.342-0.049-2.070-0.049-1.123 0-2.235 0.042-3.337 0.124-0.046 0.006-0.046 0.184-0.032 0.414 0.069 0.569 0.271 1.080 0.572 1.517 0.245 0.323 0.297 0.463 0.788 0.493zM58.316 5.586c-1.91 0-3.419 2.471-3.419 5.639 0 2.1 0.914 3.131 1.456 3.487 0.685 0.357 1.495 0.566 2.355 0.566 0.055 0 0.11-0.001 0.165-0.003 1.902 0 3.411-2.471 3.411-5.639 0-2.085-0.892-3.118-1.442-3.465-0.704-0.37-1.539-0.587-2.424-0.587-0.036 0-0.072 0-0.108 0.001zM58.807 7.634c0.401 0 0.788 0.282 0.788 1.685 0 2.226-0.505 3.517-0.773 3.747-0.109 0.099-0.255 0.159-0.414 0.159-0.022 0-0.043-0.001-0.064-0.003-0.399 0-0.785-0.296-0.785-1.662 0-2.226 0.505-3.517 0.773-3.784 0.105-0.091 0.242-0.147 0.393-0.147 0.029 0 0.058 0.002 0.086 0.006zM63.087 7.404c0.181 0.395 0.38 0.734 0.607 1.050-0.013-0.018-0.013-0.018-0.013-0.018 0 0.008 0.006 0.014 0.014 0.014 0 0 0 0 0 0-0.258 1.499-0.429 3.258-0.475 5.048-0.002 0.060-0.002 0.073-0.002 0.086 0 0.152 0.054 0.292 0.143 0.401 0.505 0.535 1.22 0.87 2.012 0.874 0.014 0.002 0.028 0.004 0.043 0.004 0.142 0 0.256-0.115 0.256-0.256 0-0.010-0.001-0.020-0.002-0.030 0.067-1.453 0.141-2.507 0.23-3.36 0.543 1.491 1.635 3.68 2.245 3.695 0.565 0.015 1.472-0.944 1.717-1.351 0.141-0.246 0.23-0.475 0.015-0.668-0.596-0.546-1.14-1.122-1.642-1.735 1.136-0.593 1.536-1.729 1.536-3.235 0-0.015 0.001-0.032 0.001-0.050 0-0.566-0.25-1.073-0.645-1.417-0.351-0.195-1.807-0.877-2.425-0.877-1.509 0-3.225 1.054-3.545 1.298-0.073 0.087-0.118 0.2-0.118 0.323 0 0.074 0.016 0.144 0.045 0.207zM66.206 8.844c0.006-0.032 0.009-0.070 0.009-0.108 0-0.285-0.186-0.527-0.443-0.611-0.073-0.021-0.152-0.035-0.233-0.038 0.253-0.205 0.572-0.339 0.921-0.369 0.037-0.004 0.073-0.006 0.109-0.006 0.525 0 0.951 0.424 0.953 0.949-0.050 0.891-0.69 1.618-1.533 1.801 0.061-0.562 0.136-1.073 0.218-1.615zM75.805 10.995c0.174-0.049 0.313-0.171 0.385-0.33 0.143-0.352 0.336-1.384-0.013-1.51-0.301-0.062-0.648-0.098-1.002-0.098-0.46 0-0.907 0.060-1.331 0.173 0.088-0.342 0.162-0.639 0.214-0.936 0.007-0.025 0.012-0.055 0.016-0.086-0.023-0.197-0.136-0.36-0.294-0.453-0.111-0.062-0.24-0.097-0.377-0.097-0.036 0-0.071 0.002-0.105 0.007 1.074-0.26 2.144-0.193 3.668-0.193 0.174-0.049 0.314-0.171 0.385-0.33 0.143-0.352 0.336-1.406 0.017-1.614-0.271-0.124-0.589-0.196-0.923-0.196-0.033 0-0.066 0.001-0.098 0.002-1.98-0-4.15 0.178-5.101 0.979-0.183 0.149-0.299 0.374-0.299 0.626 0 0.020 0.001 0.040 0.002 0.059 0.134 0.441 0.278 0.813 0.446 1.171l0.015-0.016c-0.009 0.006-0.016 0.017-0.016 0.029 0 0.003 0 0.005 0.001 0.008-0.4 1.53-0.659 3.302-0.72 5.124-0.002 0.055-0.002 0.073-0.002 0.091 0 0.152 0.025 0.297 0.071 0.433 0.037 0.157 0.103 0.303 0.193 0.432 0.666 0.782 1.996 0.871 3.275 0.642 0.929-0.156 1.858-0.067 2.207-0.26 0.232-0.123 0.397-0.346 0.438-0.611 0.090-0.405 0.283-0.62 0.038-1.266-0.076-0.13-0.214-0.215-0.372-0.215-0.029 0-0.057 0.003-0.084 0.008-1.024 0.001-2.021 0.128-2.973 0.366-0.301 0.019-0.145-0.122-0.145-0.404 0.067-0.505 0.141-0.944 0.193-1.351 0.614-0.12 1.32-0.188 2.042-0.188 0.090 0 0.179 0.001 0.269 0.003zM27.973 21.665c0-1.981 1.88-3.436 3.419-3.436 0.005-0 0.011-0 0.017-0 0.844 0 1.641 0.2 2.347 0.555 0.462 0.194 0.936 0.617 0.862 1.174-0.029 0.806-0.246 1.556-0.607 2.215-0.092 0.264-0.304 0.493-0.575 0.617-0.029 0.004-0.055 0.005-0.082 0.005-0.24 0-0.467-0.053-0.671-0.147-0.637-0.122-0.688-0.419-0.518-0.998 0.231-0.824 0.037-1.209-0.423-1.209-0.658 0.026-1.184 0.552-1.211 1.207-0.067 2.087 3.545 0.946 3.545 3.712 0 1.714-1.263 2.471-2.512 2.471-0.062 0.003-0.134 0.005-0.207 0.005-0.996 0-1.91-0.352-2.624-0.939-0.492-0.422-0.823-1.033-0.884-1.721-0.015-0.551 0.088-0.655 0.245-0.707 0.372-0.126 0.914 0.438 1.212 0.594 0.418 0.224 0.913 0.36 1.439 0.369 0.495 0 0.7-0.126 0.545-0.615-0.246-0.913-3.314-0.579-3.314-3.154zM38.007 23.92c-0.067 0.401-0.126 0.839-0.193 1.35 0 0.282-0.156 0.423 0.23 0.386 0.842-0.212 1.809-0.334 2.804-0.334 0.020 0 0.040 0 0.061 0 0.021-0.005 0.049-0.008 0.078-0.008 0.158 0 0.297 0.086 0.371 0.213 0.231 0.648 0.053 0.841-0.036 1.264-0.040 0.263-0.206 0.481-0.434 0.592-0.354 0.195-1.283 0.106-2.197 0.262-1.264 0.23-2.594 0.141-3.263-0.645-0.075-0.126-0.137-0.272-0.176-0.426-0.043-0.153-0.068-0.317-0.069-0.485 0.063-1.853 0.313-3.615 0.734-5.31-0.037 0.174-0.037 0.173-0.037 0.172 0-0.014 0.006-0.026 0.015-0.035l-0.037-0.037c-0.141-0.297-0.285-0.663-0.405-1.039-0.019-0.083-0.020-0.104-0.020-0.125 0-0.248 0.11-0.471 0.283-0.622 0.93-0.809 3.085-0.98 5.070-0.98 0.041-0.003 0.088-0.004 0.136-0.004 0.314 0 0.612 0.067 0.88 0.188 0.284 0.202 0.091 1.241-0.028 1.59-0.073 0.163-0.212 0.285-0.382 0.333-1.527 0.001-2.583-0.066-3.638 0.194 0.033-0.005 0.071-0.008 0.109-0.008 0.135 0 0.261 0.036 0.37 0.099 0.149 0.092 0.256 0.25 0.278 0.433 0 0.018-0.014 0.055-0.014 0.070-0.052 0.282-0.126 0.594-0.178 0.913 0.773-0.141 1.665-0.26 2.281-0.067 0.349 0.126 0.156 1.135 0.015 1.491-0.073 0.163-0.212 0.285-0.382 0.333-0.040 0-0.083 0-0.125 0-0.745 0-1.47 0.090-2.163 0.26zM42.48 19.634c0.312-0.246 2.014-1.298 3.523-1.298 0.615 0 2.073 0.683 2.4 0.862 0.398 0.349 0.647 0.858 0.647 1.425 0 0.016-0 0.031-0.001 0.047 0 1.504-0.386 2.639-1.546 3.188 0.52 0.645 1.065 1.222 1.652 1.753 0.090 0.098 0.136 0.212 0.136 0.338 0 0.133-0.053 0.253-0.138 0.342-0.246 0.386-1.159 1.35-1.717 1.328-0.615-0.015-1.702-2.189-2.245-3.68-0.089 0.839-0.156 1.877-0.23 3.323 0 0.004 0 0.009 0 0.014 0 0.149-0.121 0.27-0.27 0.27-0.010 0-0.020-0.001-0.029-0.002-0.786-0.011-1.493-0.344-1.996-0.874-0.081-0.114-0.128-0.255-0.128-0.407 0-0.011 0-0.023 0.001-0.034 0.043-1.82 0.214-3.566 0.505-5.272-0.030 0.213-0.030 0.213-0.030 0.213 0-0.008-0.006-0.014-0.014-0.014-0 0-0 0-0 0-0.215-0.298-0.413-0.636-0.579-0.993-0.049-0.095-0.068-0.163-0.068-0.236 0-0.115 0.049-0.219 0.126-0.292zM45.267 23.15c0.85-0.178 1.486-0.904 1.524-1.784 0-0.004 0-0.004 0-0.004 0-0.524-0.425-0.949-0.949-0.949-0.037 0-0.074 0.002-0.11 0.006-0.347 0.024-0.663 0.159-0.912 0.371 0.085-0.002 0.164 0.012 0.238 0.037 0.256 0.087 0.441 0.33 0.441 0.617 0 0.036-0.003 0.071-0.008 0.105-0.066 0.53-0.148 1.042-0.223 1.599zM57.827 19.541c-0.647 2.122-1.984 6.641-2.757 8.058-0.035 0.087-0.119 0.146-0.217 0.146-0.035 0-0.068-0.008-0.097-0.021-0.051 0.002-0.112 0.003-0.174 0.003-0.44 0-0.87-0.039-1.288-0.112l-0.023 0.006c-0.664-0.111-1.256-0.356-1.769-0.707-0.15-0.098-0.262-0.274-0.282-0.477-0.038-0.389-0.476-2.296-0.915-5.189-0.23-1.491-0.334-2.315-0.334-2.486 0.022-0.285 0.244-0.512 0.525-0.541 0.842-0 1.935 0.401 2.232 0.808 0.193 0.282 0.542 3.465 0.721 5.869 0.615-2.070 1.085-4.608 1.635-6.374 0.052-0.178 0.067-0.297 0.26-0.297 0.906 0.030 1.729 0.361 2.378 0.896 0.072 0.073 0.12 0.182 0.12 0.302 0 0.041-0.006 0.081-0.016 0.118zM60.919 27.458c0.001 0.006 0.001 0.014 0.001 0.022 0 0.145-0.118 0.263-0.263 0.263-0.013 0-0.025-0.001-0.037-0.003-0.875 0-1.931-0.438-2.243-0.824-0.080-0.113-0.127-0.254-0.127-0.405 0-0.011 0-0.023 0.001-0.034 0.123-2.922 0.443-5.676 0.948-8.364-0.041 0.219 0.077 0.111 0.22 0.111 0.013 0 0.025 0.001 0.037 0.002 0.724 0.033 1.408 0.145 2.063 0.327 0.098 0.005 0.223 0.143 0.223 0.31 0 0.021-0.002 0.042-0.006 0.062-0.451 2.517-0.745 5.462-0.816 8.461zM65.883 20.489c-0.246 0.26-0.697 1.543-0.697 3.747 0 1.365 0.647 1.313 1.055 1.313 0.418-0.078 0.779-0.279 1.055-0.563 0.261-0.208 1.034-1.328 1.472-0.542l0.386 0.979c0.041 0.111 0.065 0.24 0.065 0.374 0 0.263-0.092 0.505-0.245 0.695-0.593 0.717-1.188 1.4-2.756 1.4-2.192 0-3.664-1.084-3.664-3.992 0-3.272 1.367-5.572 3.523-5.639 0.114-0.009 0.246-0.014 0.38-0.014 0.812 0 1.581 0.186 2.267 0.517 0.341 0.194 0.912 0.387 0.846 1.092-0.017 0.903-0.295 1.738-0.761 2.437-0.116 0.162-0.376 0.666-1.29 0.406-0.647-0.126-0.669-0.334-0.49-0.913 0.23-0.824 0.015-1.469-0.58-1.469-0.031-0.005-0.067-0.008-0.103-0.008-0.178 0-0.34 0.068-0.462 0.179zM73.041 23.917c-0.067 0.401-0.126 0.839-0.193 1.35 0 0.282-0.156 0.423 0.23 0.386 0.842-0.212 1.809-0.334 2.804-0.334 0.020 0 0.041 0 0.061 0 0.021-0.005 0.049-0.008 0.078-0.008 0.158 0 0.297 0.086 0.371 0.213 0.231 0.648 0.053 0.841-0.036 1.264-0.040 0.263-0.206 0.481-0.434 0.592-0.354 0.195-1.283 0.106-2.197 0.262-1.263 0.23-2.594 0.141-3.262-0.645-0.076-0.126-0.137-0.272-0.176-0.426-0.044-0.153-0.068-0.316-0.069-0.485 0.063-1.853 0.313-3.615 0.734-5.31-0.037 0.174-0.037 0.173-0.037 0.172 0-0.014 0.006-0.026 0.015-0.035l-0.037-0.037c-0.142-0.297-0.285-0.664-0.405-1.040-0.019-0.083-0.020-0.104-0.020-0.126 0-0.248 0.11-0.471 0.283-0.621 0.93-0.809 3.085-0.98 5.070-0.98 0.041-0.003 0.088-0.004 0.136-0.004 0.314 0 0.612 0.067 0.88 0.188 0.284 0.202 0.091 1.241-0.028 1.59-0.073 0.163-0.212 0.285-0.382 0.333-1.528 0.001-2.583-0.066-3.638 0.194 0.033-0.005 0.071-0.008 0.109-0.008 0.135 0 0.261 0.036 0.37 0.099 0.149 0.092 0.256 0.25 0.278 0.433 0 0.018-0.014 0.055-0.014 0.070-0.052 0.282-0.126 0.594-0.178 0.913 0.773-0.141 1.665-0.26 2.282-0.067 0.349 0.126 0.156 1.135 0.015 1.491-0.073 0.163-0.212 0.285-0.382 0.333-0.039 0.001-0.080 0-0.121 0-0.747 0-1.473 0.090-2.168 0.26z"></path>
<path fill="#ff6700" style="fill: var(--color4, #ff6700)" d="M35.234 7.648c0.068-0.126 0.108-0.275 0.108-0.434 0-0.147-0.034-0.287-0.095-0.41-0.353-0.571-0.847-1.030-1.434-1.336-0.034-0.010-0.049-0.011-0.065-0.011-0.218 0-0.415 0.095-0.549 0.247-0.495 0.699-0.995 1.507-1.446 2.344-0.375-1.186-0.784-2.551-1.118-2.551-0.565 0-1.88 0.369-2.229 0.772-0.076 0.098-0.122 0.223-0.122 0.359 0 0.127 0.040 0.245 0.109 0.341 0.456 1.177 0.957 2.182 1.54 3.131-0.82 0.832-1.571 1.844-2.258 2.901-0.142 0.239-0.184 0.386-0.184 0.542 0 0.146 0.037 0.283 0.101 0.403 0.407 0.493 0.931 0.882 1.531 1.122 0.071 0.033 0.124 0.047 0.181 0.047 0.128 0 0.24-0.072 0.297-0.177 0.439-0.699 1.086-1.93 1.614-2.947 0.387 1.453 0.967 3.19 1.353 3.19 0.565 0 1.613-0.668 1.984-1.054 0.076-0.098 0.122-0.223 0.122-0.359 0-0.127-0.040-0.245-0.109-0.341-0.451-1.239-0.965-2.301-1.569-3.302 0.753-0.703 1.994-2.105 2.239-2.476zM39.255 6.217c0.004-0.019 0.006-0.041 0.006-0.063 0-0.17-0.124-0.311-0.286-0.337-0.598-0.172-1.288-0.284-1.999-0.312-0.023-0.001-0.031-0.001-0.039-0.001-0.146 0-0.267 0.106-0.289 0.245-0.449 2.349-0.768 5.125-0.888 7.954-0.005 0.132-0.005 0.145-0.005 0.158 0 0.152 0.054 0.292 0.143 0.401 0.311 0.4 1.367 0.823 2.244 0.823 0.013 0.002 0.028 0.004 0.043 0.004 0.141 0 0.256-0.115 0.256-0.256 0-0.010-0.001-0.021-0.002-0.031 0.084-3.099 0.378-6.060 0.87-8.955z"></path>
</symbol>
<symbol id="icon-lock" viewBox="0 0 22 32">
<title>lock</title>
<path fill="#fff" opacity="0.5" style="fill: var(--color2, #fff)" d="M11.034 16.552c-1.219 0-2.207 0.988-2.207 2.207v3.31c0 1.219 0.988 2.207 2.207 2.207s2.207-0.988 2.207-2.207v-3.31c0-1.219-0.988-2.207-2.207-2.207zM12.138 22.069c0 0.609-0.494 1.103-1.103 1.103s-1.103-0.494-1.103-1.103v-3.31c0-0.607 0.497-1.103 1.103-1.103 0.609 0 1.103 0.494 1.103 1.103zM17.103 11.757v-6.119c0-3.112-2.726-5.639-6.069-5.639s-6.069 2.527-6.069 5.639c0 0.305 0.247 0.552 0.552 0.552s0.552-0.247 0.552-0.552c0-2.499 2.229-4.535 4.966-4.535s4.966 2.036 4.966 4.535v5.484l-0.314-0.149c-0.297-0.149-0.658-0.298-1.030-0.423l-0.498-0.162c-0.237-0.072-0.486-0.132-0.728-0.188l-0.32-0.066c-0.292-0.055-0.579-0.105-0.872-0.132l-0.199-0.022c-0.298-0.028-0.643-0.045-0.993-0.045-6.095 0-11.036 4.936-11.046 11.029 0 6.086 4.949 11.035 11.034 11.035s11.034-4.949 11.034-11.034c-0.003-3.832-1.958-7.207-4.925-9.183zM11.034 30.897c-5.479 0-9.931-4.458-9.931-9.931 0.010-5.484 4.457-9.925 9.942-9.925 0.307 0 0.611 0.014 0.91 0.041l0.243 0.030c0.394 0.039 0.749 0.102 1.095 0.188 0.471 0.114 0.909 0.252 1.335 0.417 3.702 1.435 6.332 5.035 6.337 9.249 0 5.474-4.458 9.932-9.931 9.932z"></path>
</symbol>
<symbol id="icon-layers" viewBox="0 0 33 32">
<title>layers</title>
<path fill="#fff" opacity="0.5" style="fill: var(--color2, #fff)" d="M26.702 14.821c0.018-0.002 0.038-0.003 0.059-0.003 0.327 0 0.593 0.265 0.593 0.593s-0.265 0.593-0.593 0.593c-0.021 0-0.041-0.001-0.062-0.003-0.015 0.002-0.036 0.003-0.057 0.003-0.327 0-0.593-0.265-0.593-0.593s0.265-0.593 0.593-0.593c0.021 0 0.041 0.001 0.062 0.003zM5.351 14.821c0.018-0.002 0.038-0.003 0.059-0.003 0.327 0 0.593 0.265 0.593 0.593s-0.265 0.593-0.593 0.593c-0.021 0-0.041-0.001-0.062-0.003-0.015 0.002-0.036 0.003-0.057 0.003-0.327 0-0.593-0.265-0.593-0.593s0.265-0.593 0.593-0.593c0.021 0 0.041 0.001 0.062 0.003zM7.129 16.593c0.018-0.002 0.038-0.003 0.059-0.003 0.327 0 0.593 0.265 0.593 0.593s-0.265 0.593-0.593 0.593c-0.021 0-0.041-0.001-0.062-0.003-0.015 0.002-0.036 0.003-0.057 0.003-0.327 0-0.593-0.265-0.593-0.593s0.265-0.593 0.593-0.593c0.021 0 0.041 0.001 0.062 0.003zM10.69 16.593c0.018-0.002 0.038-0.003 0.059-0.003 0.327 0 0.593 0.265 0.593 0.593s-0.265 0.593-0.593 0.593c-0.021 0-0.041-0.001-0.062-0.003-0.015 0.002-0.036 0.003-0.057 0.003-0.327 0-0.593-0.265-0.593-0.593s0.265-0.593 0.593-0.593c0.021 0 0.041 0.001 0.062 0.003zM8.907 18.359c0.301 0.031 0.533 0.283 0.533 0.59s-0.233 0.559-0.531 0.589c-0.020 0.002-0.041 0.003-0.062 0.003-0.327 0-0.593-0.265-0.593-0.593s0.265-0.593 0.593-0.593c0.021 0 0.041 0.001 0.062 0.003zM12.468 18.359c0.018-0.002 0.038-0.003 0.059-0.003 0.327 0 0.593 0.265 0.593 0.593s-0.265 0.593-0.593 0.593c-0.021 0-0.041-0.001-0.062-0.003-0.015 0.002-0.036 0.003-0.057 0.003-0.327 0-0.593-0.265-0.593-0.593s0.265-0.593 0.593-0.593c0.021 0 0.041 0.001 0.062 0.003zM14.246 20.124c0.018-0.002 0.038-0.003 0.059-0.003 0.327 0 0.593 0.265 0.593 0.593s-0.265 0.593-0.593 0.593c-0.021 0-0.041-0.001-0.062-0.003-0.015 0.002-0.036 0.003-0.057 0.003-0.327 0-0.593-0.265-0.593-0.593s0.265-0.593 0.593-0.593c0.021 0 0.041 0.001 0.062 0.003zM17.807 20.124c0.018-0.002 0.038-0.003 0.059-0.003 0.327 0 0.593 0.265 0.593 0.593s-0.265 0.593-0.593 0.593c-0.021 0-0.041-0.001-0.062-0.003-0.298-0.031-0.531-0.283-0.531-0.589s0.233-0.559 0.531-0.589zM19.585 18.359c0.018-0.002 0.038-0.003 0.059-0.003 0.327 0 0.593 0.265 0.593 0.593s-0.265 0.593-0.593 0.593c-0.021 0-0.041-0.001-0.062-0.003-0.015 0.002-0.036 0.003-0.057 0.003-0.327 0-0.593-0.265-0.593-0.593s0.265-0.593 0.593-0.593c0.021 0 0.041 0.001 0.062 0.003zM16.024 21.896c0.301 0.031 0.533 0.283 0.533 0.59s-0.233 0.559-0.531 0.589c-0.020 0.002-0.041 0.003-0.062 0.003-0.327 0-0.593-0.265-0.593-0.593s0.265-0.593 0.593-0.593c0.021 0 0.041 0.001 0.062 0.003zM21.363 16.593c0.018-0.002 0.038-0.003 0.059-0.003 0.327 0 0.593 0.265 0.593 0.593s-0.265 0.593-0.593 0.593c-0.021 0-0.041-0.001-0.062-0.003-0.015 0.002-0.036 0.003-0.057 0.003-0.327 0-0.593-0.265-0.593-0.593s0.265-0.593 0.593-0.593c0.021 0 0.041 0.001 0.062 0.003zM24.924 16.593c0.018-0.002 0.038-0.003 0.059-0.003 0.327 0 0.593 0.265 0.593 0.593s-0.265 0.593-0.593 0.593c-0.021 0-0.041-0.001-0.062-0.003 0.001 0-0.001 0-0.003 0-0.327 0-0.593-0.265-0.593-0.593 0 0 0-0 0-0 0.003-0.325 0.267-0.587 0.593-0.587 0.002 0 0.004 0 0.006 0zM23.141 18.359c0.301 0.031 0.533 0.283 0.533 0.59s-0.233 0.559-0.531 0.589c-0.020 0.002-0.041 0.003-0.062 0.003-0.327 0-0.593-0.265-0.593-0.593s0.265-0.593 0.593-0.593c0.021 0 0.041 0.001 0.062 0.003zM26.91 19.496l-0.041 0.024 5.724 3.23-16.296 9.25-16.296-9.25 5.724-3.23-5.724-3.253 5.724-3.23-5.724-3.253 16.296-9.197 16.296 9.197-5.73 3.253 5.73 3.23-5.683 3.23zM2.4 9.79l13.896 7.887 13.896-7.887-13.896-7.846zM2.394 16.273l0.806 0.456c0.101-0.082 0.231-0.132 0.373-0.132 0.324 0 0.587 0.26 0.592 0.582 0 0.030-0.018 0.054-0.018 0.083l5.961 3.39c0.036-0.296 0.273-0.527 0.581-0.527 0.327 0 0.593 0.265 0.593 0.593 0 0.19-0.101 0.356-0.243 0.462l1.304 0.741c0.037-0.013 0.079-0.021 0.123-0.024 0.268-0 0.481 0.172 0.558 0.409l3.271 1.855 2.72-1.541c-0.006-0.047-0.024-0.089-0.024-0.136 0.005-0.324 0.268-0.584 0.593-0.584 0.159 0 0.303 0.062 0.409 0.164l1.345-0.765c-0.313-0.013-0.563-0.267-0.569-0.58 0-0.328 0.265-0.593 0.593-0.593s0.593 0.265 0.593 0.593c0 0.101-0.030 0.196-0.077 0.279l6.127-3.484c-0.072-0.090-0.116-0.206-0.119-0.331 0-0.328 0.265-0.593 0.593-0.593 0.239 0 0.444 0.142 0.538 0.346l1.175-0.66-4.527-2.56-0.19 0.113c-0.078 0.236-0.294 0.403-0.55 0.409-0.048 0-0.084-0.018-0.125-0.024l-1.304 0.741c0.142 0.107 0.237 0.267 0.237 0.462-0.003 0.325-0.267 0.587-0.593 0.587 0 0-0 0-0 0-0.299-0.002-0.544-0.228-0.575-0.519l-5.962 3.381 0.012 0.083c0 0.327-0.265 0.593-0.593 0.593s-0.593-0.265-0.593-0.593c0-0.124 0.047-0.237 0.119-0.332l-6.127-3.479c0.047 0.083 0.077 0.172 0.077 0.279 0 0.326-0.261 0.587-0.593 0.587 0 0-0 0-0 0-0.325 0-0.589-0.262-0.593-0.586 0.003-0.317 0.254-0.574 0.568-0.587l-1.344-0.759c-0.105 0.104-0.249 0.168-0.408 0.168-0.233 0-0.434-0.137-0.527-0.336zM25.665 20.201l-9.369 5.316-9.375-5.316-4.521 2.554 13.896 7.887 13.896-7.887z"></path>
</symbol>
<symbol id="icon-info" viewBox="0 0 32 32">
<title>info</title>
<path fill="#b5b5b5" style="fill: var(--color5, #b5b5b5)" d="M16 0c-8.516 0.414-15.263 7.419-15.263 16s6.748 15.586 15.226 15.999c8.553-0.413 15.3-7.418 15.3-15.999s-6.748-15.586-15.226-15.999zM16 30.027c-7.447-0.387-13.338-6.519-13.338-14.027s5.891-13.64 13.304-14.025c7.481 0.385 13.372 6.517 13.372 14.025s-5.892 13.64-13.304 14.025zM14.613 9.618c0 0.907 0.729 1.653 1.636 1.653s1.653-0.747 1.653-1.653c0-0 0-0 0-0 0-0.903-0.732-1.636-1.636-1.636-0.006 0-0.012 0-0.019 0-0.902 0-1.635 0.732-1.635 1.636zM15.822 13.956c-0.533 0-0.978 0.444-0.978 0.978v8.373c0 0.551 0.427 0.978 0.978 0.978 0.533 0 0.978-0.427 0.978-0.978v-8.373c0-0.533-0.444-0.978-0.978-0.978z"></path>
</symbol>
<symbol id="icon-scissors" viewBox="0 0 24 32">
<title>scissors</title>
<path fill="#fff" style="fill: var(--color2, #fff)" d="M21.19 20.341v1.92c0 0.64 0.459 1.169 1.071 1.252v-4.41c-0.609 0.091-1.071 0.611-1.071 1.239 0 0.005 0 0.009 0 0.014zM22.261 23.513v0.139c0 0.696 0.835-0.139 0.153-0.139h-0.153zM22.261 19.103h0.153c0.696 0-0.153-0.835-0.153-0.139zM13.537 1.405c-0.696 0.070-1.363 0.348-1.948 0.793-0.334 0.25-0.64 0.557-0.89 0.904-0.621 0.877-0.993 1.968-0.993 3.146 0 0.082 0.002 0.165 0.005 0.246l0.014 0.267c0.056 0.696 0.223 1.363 0.515 1.99l0.153 0.306c1.030 1.92 1.433 3.339 1.6 4.313-1.503-0.797-2.782-1.801-3.857-2.993-0.504-0.446-1.080-0.799-1.711-1.043l-0.289-0.111c-0.5-0.182-1.077-0.288-1.678-0.288-1.092 0-2.103 0.348-2.928 0.938-0.937 0.705-1.546 1.832-1.546 3.102 0 0.208 0.016 0.412 0.048 0.611 0.108 0.813 0.456 1.606 1.013 2.301 0.642 0.805 1.49 1.421 2.466 1.769 1.68 0.596 3.517 0.388 4.755-0.572 0.328-0.254 0.608-0.547 0.84-0.878l3.153 1.378 1.809 10.463 0.028 0.111c0.028 0.237 0.070 0.487 0.153 0.737 0.348 0.918 1.155 1.433 1.781 1.711 0.306 0.139 0.557 0.223 0.807 0.278l0.612 0.139c0.021 0.005 0.046 0.008 0.072 0.008 0.177 0 0.32-0.143 0.32-0.32 0-0.013-0.001-0.025-0.002-0.037l-1.405-11.407 3.965 1.67v-4.049l-4.55-2.198-0.417-3.339c0.39-0.125 0.751-0.32 1.085-0.557 1.154-0.966 1.883-2.408 1.883-4.019 0-0.074-0.002-0.148-0.005-0.221 0-0.002 0-0.017 0-0.031 0-1.906-0.983-3.583-2.47-4.551-0.603-0.371-1.308-0.584-2.063-0.584-0.119 0-0.236 0.005-0.352 0.016zM7.068 14.664c-0.097 0.139-0.195 0.25-0.334 0.348-0.543 0.417-1.322 0.445-1.878 0.334-0.782-0.155-1.445-0.581-1.901-1.175-0.395-0.564-0.52-1.19-0.298-1.691 0.091-0.225 0.234-0.412 0.415-0.554 0.42-0.308 1.074-0.447 1.714-0.364 0.849 0.125 1.642 0.598 2.115 1.252 0.32 0.473 0.557 1.252 0.167 1.85zM14.052 3.993c0.278 0.028 0.57 0.167 0.835 0.376 0.557 0.473 0.932 1.28 0.974 2.157 0.028 0.71-0.181 1.656-0.863 2.17l-0.070 0.056c-0.501 0.334-1.155 0.278-1.67-0.139-0.501-0.417-0.863-1.085-0.974-1.864v-0.070c-0.083-0.723 0.070-1.725 0.737-2.323l0.083-0.083c0.278-0.209 0.612-0.306 0.946-0.278z"></path>
</symbol>
<symbol id="icon-geo_linear" viewBox="0 0 22 32">
<title>geo_linear</title>
<path fill="#fff" style="fill: var(--color2, #fff)" d="M18.398 4.438c-1.832-1.845-4.369-2.988-7.174-2.988-0.008 0-0.016 0-0.025 0s-0.019-0-0.030-0c-2.802 0-5.337 1.142-7.165 2.987-3.561 3.561-4.007 10.263-0.961 14.318l8.158 11.795 8.148-11.776c3.055-4.074 2.609-10.776-0.951-14.336zM11.297 15.263c-2.057 0-3.725-1.668-3.725-3.725s1.668-3.725 3.725-3.725c2.057 0 3.725 1.668 3.725 3.725s-1.668 3.725-3.725 3.725z"></path>
<path fill="none" stroke="#666" stroke-width="2.1333" stroke-miterlimit="50" stroke-linecap="round" stroke-linejoin="round" style="stroke: var(--color6, #666)" d="M18.398 4.438c-1.832-1.845-4.369-2.988-7.174-2.988-0.008 0-0.016 0-0.025 0s-0.019-0-0.030-0c-2.802 0-5.337 1.142-7.165 2.987-3.561 3.561-4.007 10.263-0.961 14.318l8.158 11.795 8.148-11.776c3.055-4.074 2.609-10.776-0.951-14.336zM11.297 15.263c-2.057 0-3.725-1.668-3.725-3.725s1.668-3.725 3.725-3.725c2.057 0 3.725 1.668 3.725 3.725s-1.668 3.725-3.725 3.725z"></path>
</symbol>
<symbol id="icon-geo2" viewBox="0 0 23 32">
<title>geo2</title>
<path fill="#ff6700" style="fill: var(--color4, #ff6700)" d="M19.491 3.281c-1.998-2.026-4.773-3.281-7.841-3.281-0.005 0-0.010 0-0.015 0-2.967 0-5.759 1.169-7.854 3.281-3.887 3.921-4.364 11.287-1.047 15.75l8.902 12.969 8.884-12.951c3.334-4.48 2.851-11.846-1.030-15.767zM11.741 15.197c-2.242-0.010-4.055-1.829-4.055-4.073 0-0.006 0-0.012 0-0.018-0-0.004-0-0.010-0-0.017 0-2.243 1.814-4.063 4.054-4.073 2.243 0.010 4.056 1.83 4.056 4.073 0 0.006 0 0.012-0 0.018 0 0.003 0 0.007 0 0.011 0 2.244-1.813 4.065-4.054 4.078z"></path>
</symbol>
<symbol id="icon-cool" viewBox="0 0 34 32">
<title>cool</title>
<path fill="#ff9f00" style="fill: var(--color1, #ff9f00)" d="M32.24 11.864c-1.848-6.881-8.030-11.864-15.376-11.864-0.003 0-0.006 0-0.008 0-0.005 0-0.011 0-0.017 0-5.904 0-11.065 3.182-13.862 7.925-1.382 2.357-2.175 5.101-2.175 8.030 0 1.485 0.204 2.922 0.584 4.285 1.255 4.647 4.565 8.451 8.896 10.376l-0.139 0.040c-0.369 0-0.668 0.299-0.668 0.668s0.299 0.668 0.668 0.668h13.336c0.369 0 0.668-0.299 0.668-0.668s-0.299-0.668-0.668-0.668h-0.296c5.713-2.497 9.632-8.098 9.632-14.615 0-1.489-0.205-2.93-0.587-4.297zM29.504 23.336c-2.604 4.405-7.33 7.313-12.735 7.313-2.687 0-5.207-0.719-7.376-1.975-4.342-2.553-7.257-7.275-7.257-12.678 0-2.699 0.728-5.228 1.998-7.402 2.566-4.339 7.293-7.25 12.7-7.25 2.686 0 5.204 0.718 7.373 1.973 3.26 1.907 5.714 5.047 6.722 8.78 1.047 3.894 0.527 7.854-1.417 11.23zM13.696 27.6c-4.15-1.143-7.352-4.346-8.476-8.411-0.094-0.377-0.354-0.59-0.665-0.59-0.367 0-0.664 0.297-0.664 0.664 0 0.069 0.010 0.135 0.030 0.198 1.268 4.602 4.819 8.159 9.329 9.413l0.27 0.038c0.011 0.001 0.023 0.001 0.035 0.001 0.367 0 0.664-0.297 0.664-0.664 0-0.317-0.222-0.582-0.519-0.648zM20.256 3.112c-0.053-0.015-0.113-0.024-0.176-0.024-0.369 0-0.668 0.299-0.668 0.668 0 0.306 0.206 0.564 0.487 0.643 4.155 1.145 7.357 4.347 8.481 8.413 0.094 0.377 0.354 0.59 0.665 0.59 0.367 0 0.664-0.297 0.664-0.664 0-0.069-0.011-0.135-0.030-0.198-1.268-4.602-4.819-8.159-9.329-9.413zM16.4 28l-0.496-0.024c-0.016-0.001-0.034-0.002-0.052-0.002-0.368 0-0.666 0.298-0.666 0.666 0 0.35 0.269 0.636 0.612 0.664l0.562 0.032h0.016c0.004 0 0.008 0 0.012 0 0.369 0 0.668-0.299 0.668-0.668 0-0.365-0.292-0.661-0.655-0.668zM17.2 4l0.496 0.024h0.056c0.007 0 0.016 0 0.024 0 0.367 0 0.664-0.297 0.664-0.664 0-0.359-0.284-0.651-0.639-0.664l-0.561-0.032c-0.006-0-0.013-0-0.020-0-0.369 0-0.668 0.299-0.668 0.668 0 0.362 0.288 0.657 0.647 0.668zM23.544 12.216h-3.56c0.288-1.36 0.48-2.8-0.296-3.856-0.512-0.712-1.392-1.128-2.616-1.248h-0.128c-0.696 0-1.296 0.544-1.36 1.24-0.232 2.4-0.88 3.744-1.544 4.344-0.082-0.28-0.337-0.48-0.638-0.48-0.001 0-0.001 0-0.002 0h-4.24c-0.367 0-0.664 0.297-0.664 0.664v8.672c0 0.368 0.296 0.672 0.664 0.672h4.24c0.312 0 0.568-0.216 0.64-0.504 0.504 0.32 1.128 0.504 1.856 0.504h7.040c0.72 0 1.304-0.552 1.384-1.312l0.776-6.848c0.056-0.544-0.080-1.024-0.376-1.36-0.2-0.224-0.56-0.488-1.176-0.488zM12.736 20.88h-2.912v-4.672h1.456c0.369 0 0.668-0.299 0.668-0.668s-0.299-0.668-0.668-0.668h-1.456v-1.336h2.912zM23.76 13.92l-0.768 6.848c-0.016 0.080-0.048 0.12-0.056 0.128h-7.048c-1.6 0-1.832-1.168-1.832-1.864v-4.792c0.611-0.274 1.111-0.702 1.464-1.235 0.728-1.045 1.192-2.557 1.384-4.525 0-0.016 0.016-0.032 0.040-0.032 0.816 0.080 1.376 0.32 1.656 0.704 0.536 0.736 0.216 2.144-0.056 3.384l-0.048 0.208c-0.010 0.043-0.016 0.093-0.016 0.144 0 0.367 0.297 0.664 0.664 0.664h4.392c0.080 0 0.16 0.016 0.176 0.048 0.040 0.032 0.064 0.16 0.048 0.32z"></path>
</symbol>
<symbol id="icon-arrow_s_right" viewBox="0 0 19 32">
<title>arrow_s_right</title>
<path fill="#8b8b8b" style="fill: var(--color7, #8b8b8b)" d="M1.088 3.861c0-0.256 0.107-0.469 0.277-0.64l1.429-1.429c0.171-0.171 0.427-0.299 0.661-0.299s0.491 0.128 0.661 0.299l13.312 13.312c0.171 0.171 0.277 0.427 0.277 0.64 0 0.256-0.107 0.512-0.277 0.683l-13.312 13.312c-0.171 0.167-0.404 0.271-0.66 0.277-0.259-0.006-0.491-0.111-0.663-0.278l-1.429-1.429c-0.162-0.166-0.266-0.39-0.277-0.638-0-0.258 0.107-0.514 0.277-0.685l11.243-11.2-11.243-11.264c-0.162-0.166-0.266-0.39-0.277-0.638z"></path>
</symbol>
<symbol id="icon-arrow_s_left" viewBox="0 0 19 32">
<title>arrow_s_left</title>
<path fill="#8b8b8b" style="fill: var(--color7, #8b8b8b)" d="M18.133 3.861c-0.013-0.254-0.125-0.479-0.298-0.639l-1.43-1.43c-0.164-0.17-0.387-0.281-0.637-0.298-0.259-0-0.515 0.128-0.686 0.298l-13.312 13.312c-0.162 0.166-0.266 0.39-0.277 0.638-0 0.258 0.107 0.514 0.277 0.685l13.312 13.312c0.171 0.171 0.427 0.277 0.661 0.277 0.213 0 0.491-0.107 0.661-0.277l1.429-1.429c0.171-0.171 0.277-0.427 0.277-0.64 0-0.256-0.107-0.512-0.277-0.683l-11.221-11.2 11.221-11.243c0.171-0.171 0.277-0.427 0.277-0.64z"></path>
</symbol>
<symbol id="icon-arrow_right" viewBox="0 0 32 32">
<title>arrow_right</title>
<path fill="none" stroke="#fff" stroke-width="2.2069" stroke-miterlimit="50" stroke-linecap="round" stroke-linejoin="round" style="stroke: var(--color2, #fff)" d="M16 0c8.837 0 16 7.163 16 16s-7.163 16-16 16c-8.837 0-16-7.163-16-16s7.163-16 16-16z"></path>
<path fill="none" stroke="#fff" stroke-width="2.2069" stroke-miterlimit="50" stroke-linecap="butt" stroke-linejoin="miter" style="stroke: var(--color2, #fff)" d="M16 0c8.837 0 16 7.163 16 16s-7.163 16-16 16c-8.837 0-16-7.163-16-16s7.163-16 16-16z"></path>
<path fill="#fff" style="fill: var(--color2, #fff)" d="M18.979 15.801c-0.004 0.087-0.042 0.164-0.099 0.221l-4.59 4.59c-0.060 0.059-0.141 0.097-0.231 0.099-0.087-0.004-0.165-0.041-0.221-0.099l-0.497-0.497c-0.058-0.056-0.095-0.134-0.099-0.22-0-0.078 0.044-0.166 0.099-0.233l3.873-3.862-3.873-3.873c-0.055-0.062-0.092-0.142-0.099-0.23-0-0.090 0.044-0.167 0.099-0.222l0.497-0.497c0.056-0.058 0.134-0.095 0.22-0.099 0.089-0 0.177 0.044 0.232 0.099l4.59 4.59c0.055 0.055 0.099 0.143 0.099 0.232z"></path>
</symbol>
<symbol id="icon-phone" viewBox="0 0 32 32">
<title>phone</title>
<path fill="#fff" style="fill: var(--color2, #fff)" d="M0 0h32v32h-32v-32z"></path>
<path fill="#fff" style="fill: var(--color2, #fff)" d="M-910.222-64h1706.667v7459.556h-1706.667v-7459.556z"></path>
<path fill="#000" style="fill: var(--color8, #000)" d="M17.118 26.89l-0.347 0.481 0.001 0.001 0.346-0.481zM10.305 21.101l0.424-0.414-0-0-0.424 0.414zM3.447 11.827v0zM1.966 4.721l0.566 0.175 0-0.001-0.567-0.174zM3.851 2.552l-0.305-0.508-0.008 0.005 0.313 0.503zM3.995 2.463l0.265 0.53 0.028-0.014 0.027-0.017-0.32-0.499zM8.088 2.75l-0.458 0.376 0.003 0.004 0.455-0.38zM8.178 2.857l0.459-0.375-0.004-0.004-0.455 0.38zM10.907 9.954l0.476 0.353 0.001-0.002-0.477-0.351zM9.533 13.001l0.591-0.049-0-0.004-0.59 0.053zM11.068 15.51l0.446-0.391-0.004-0.004-0.442 0.395zM11.131 15.582l-0.446 0.391 0.002 0.002 0.444-0.393zM13.564 18.225l-0.422 0.416 0.003 0.003 0.419-0.419zM13.878 18.548l0.43-0.408-0.011-0.011-0.419 0.419zM14.039 18.718l-0.43 0.408 0.003 0.003 0.427-0.411zM16.759 21.263l0.398-0.439-0.008-0.007-0.391 0.446zM16.858 21.352l-0.398 0.439 0.008 0.007 0.39-0.446zM22.226 20.868l-0.316-0.501-0.003 0.002 0.319 0.499zM29.425 24.13l-0.425 0.413 0.003 0.003 0.422-0.416zM28.914 27.686c-0.865 1.045-1.493 1.501-2.074 1.721-0.613 0.242-1.231 0.233-2.164 0.233v1.185c0.934 0 1.765-0.010 2.584-0.309 0.851-0.322 1.637-0.951 2.567-2.074l-0.913-0.756zM24.676 29.64c-1.625 0-4.322-1.156-7.212-3.231l-0.691 0.963c2.926 2.101 5.884 3.454 7.904 3.454v-1.185zM17.465 26.409c-2.779-2.005-3.978-2.896-6.736-5.722l-0.848 0.828c2.825 2.89 4.104 3.845 6.89 5.855l0.693-0.961zM10.729 20.687c-2.925-2.989-4.736-5.442-6.762-9.145l-1.040 0.569c2.067 3.771 3.973 6.354 6.954 9.404l0.847-0.829zM3.967 11.542c-1.062-1.94-1.508-3.29-1.65-4.298-0.15-1 0.002-1.661 0.215-2.348l-1.132-0.35c-0.227 0.737-0.416 1.654-0.256 2.862 0.168 1.201 0.683 2.691 1.784 4.703l1.040-0.569zM2.533 4.895c0.178-0.582 0.757-1.295 1.631-1.839l-0.626-1.007c-1.028 0.639-1.85 1.556-2.139 2.498l1.133 0.347zM4.156 3.061c0.020-0.012 0.043-0.027 0.058-0.037s0.026-0.017 0.035-0.023c0.018-0.012 0.018-0.011 0.011-0.008l-0.529-1.060c-0.061 0.030-0.11 0.062-0.139 0.082s-0.049 0.032-0.045 0.030l0.609 1.017zM4.315 2.962c0.502-0.322 1.147-0.722 1.808-0.722v-1.185c-1.063 0-1.998 0.621-2.447 0.909l0.639 0.998zM6.122 2.24c0.484 0 0.969 0.229 1.508 0.886l0.916-0.752c-0.682-0.831-1.472-1.319-2.424-1.319v1.185zM7.633 3.129l0.090 0.108 0.91-0.76-0.090-0.108-0.91 0.76zM7.719 3.233c1.139 1.391 2.116 2.649 2.65 3.789 0.525 1.112 0.544 1.924 0.060 2.581l0.954 0.703c0.862-1.171 0.662-2.509 0.058-3.79-0.595-1.253-1.655-2.63-2.805-4.034l-0.917 0.751zM10.431 9.601c-0.932 1.255-1.592 2.3-1.488 3.453l1.18-0.106c-0.058-0.639 0.288-1.333 1.259-2.64l-0.952-0.707zM8.943 13.050c0.092 1.108 0.848 1.919 1.683 2.855l0.884-0.789c-0.924-1.035-1.334-1.533-1.386-2.163l-1.181 0.098zM10.623 15.9l0.063 0.072 0.891-0.781-0.063-0.072-0.891 0.781zM10.688 15.975c1.453 1.64 1.877 2.081 2.454 2.667l0.844-0.832c-0.572-0.58-0.974-0.998-2.411-2.62l-0.887 0.786zM13.145 18.644c0.090 0.089 0.188 0.197 0.314 0.323l0.837-0.839c-0.108-0.107-0.206-0.215-0.314-0.323l-0.837 0.839zM13.448 18.956l0.162 0.17 0.86-0.816-0.162-0.17-0.86 0.816zM13.612 19.129c0.666 0.692 1.052 1.086 2.756 2.58l0.781-0.892c-1.671-1.463-2.021-1.822-2.683-2.51l-0.854 0.822zM16.361 21.702l0.099 0.090 0.797-0.878-0.099-0.090-0.797 0.878zM16.468 21.799c0.68 0.594 1.377 1.231 2.409 1.231v-1.185c-0.512 0-0.874-0.278-1.63-0.938l-0.78 0.893zM18.878 23.029c0.528 0 1.042-0.167 1.608-0.445 0.554-0.272 1.22-0.681 2.059-1.217l-0.638-0.999c-0.831 0.53-1.439 0.905-1.942 1.151-0.491 0.24-0.816 0.324-1.087 0.324v1.185zM22.542 21.37c0.048-0.030 0.17-0.079 0.402-0.079v-1.185c-0.379 0-0.741 0.077-1.034 0.262l0.632 1.003zM22.944 21.291c0.805 0 2.013 0.482 3.235 1.184 1.198 0.687 2.266 1.495 2.821 2.069l0.85-0.826c-0.62-0.636-1.819-1.544-3.081-2.27-1.238-0.712-2.683-1.341-3.825-1.341v1.185zM29.002 24.546c0.551 0.559 0.799 0.903 0.836 1.265 0.035 0.348-0.114 0.897-0.924 1.875l0.913 0.756c0.86-1.038 1.276-1.91 1.19-2.751-0.084-0.827-0.644-1.443-1.171-1.977l-0.844 0.832z"></path>
</symbol>
    <symbol id="icon-clock2" viewBox="0 0 33 32">
        <title>clock2</title>
        <path fill="none" stroke="#ff9f00" stroke-width="1.3913" stroke-miterlimit="10" stroke-linecap="butt" stroke-linejoin="miter" style="stroke: var(--color9, #ff9f00)" d="M2.748 11.705h10.739"></path>
        <path fill="none" stroke="#ff9f00" stroke-width="1.3913" stroke-miterlimit="10" stroke-linecap="butt" stroke-linejoin="miter" style="stroke: var(--color9, #ff9f00)" d="MNaNNaNclNaNNaNc"></path>
        <path fill="none" stroke="#ff9f00" stroke-width="1.3913" stroke-miterlimit="10" stroke-linecap="butt" stroke-linejoin="miter" style="stroke: var(--color9, #ff9f00)" d="M0.6 23.159h10.739"></path>
        <path fill="none" stroke="#ff9f00" stroke-width="1.3913" stroke-miterlimit="10" stroke-linecap="butt" stroke-linejoin="miter" style="stroke: var(--color9, #ff9f00)" d="M17.066 3.114h-2.864v-2.864h7.159v2.864h-2.864"></path>
        <path fill="none" stroke="#ff9f00" stroke-width="1.3913" stroke-miterlimit="10" stroke-linecap="butt" stroke-linejoin="miter" style="stroke: var(--color9, #ff9f00)" d="M19.214 4.545v1.516c6.458 0.761 11.42 6.202 11.42 12.803 0 7.105-5.75 12.867-12.85 12.886h-10.741"></path>
        <path fill="none" stroke="#ff9f00" stroke-width="1.3913" stroke-miterlimit="10" stroke-linecap="butt" stroke-linejoin="miter" style="stroke: var(--color9, #ff9f00)" d="M6.618 25.305c0.868 1.483 1.966 2.731 3.261 3.739"></path>
        <path fill="none" stroke="#ff9f00" stroke-width="1.3913" stroke-miterlimit="10" stroke-linecap="butt" stroke-linejoin="miter" style="stroke: var(--color9, #ff9f00)" d="M4.915 19.58c0.071 1.284 0.32 2.487 0.723 3.617"></path>
        <path fill="none" stroke="#ff9f00" stroke-width="1.3913" stroke-miterlimit="10" stroke-linecap="butt" stroke-linejoin="miter" style="stroke: var(--color9, #ff9f00)" d="M5.907 13.852c-0.454 1.044-0.782 2.254-0.925 3.521"></path>
        <path fill="none" stroke="#ff9f00" stroke-width="1.3913" stroke-miterlimit="10" stroke-linecap="butt" stroke-linejoin="miter" style="stroke: var(--color9, #ff9f00)" d="M16.35 4.545v1.516c-3.899 0.447-7.226 2.577-9.278 5.633"></path>
        <path fill="none" stroke="#ff9f00" stroke-width="1.3913" stroke-miterlimit="10" stroke-linecap="butt" stroke-linejoin="miter" style="stroke: var(--color9, #ff9f00)" d="M19.93 18.864c0 1.186-0.962 2.148-2.148 2.148s-2.148-0.962-2.148-2.148c0-1.186 0.962-2.148 2.148-2.148s2.148 0.962 2.148 2.148z"></path>
        <path fill="none" stroke="#ff9f00" stroke-width="1.3913" stroke-miterlimit="10" stroke-linecap="butt" stroke-linejoin="miter" style="stroke: var(--color9, #ff9f00)" d="M19.214 17.432l5.727-5.727"></path>
        <path fill="none" stroke="#ff9f00" stroke-width="1.3913" stroke-miterlimit="10" stroke-linecap="butt" stroke-linejoin="miter" style="stroke: var(--color9, #ff9f00)" d="M29.953 8.125l-2.148-2.148"></path>
        <path fill="none" stroke="#ff9f00" stroke-width="1.3913" stroke-miterlimit="10" stroke-linecap="butt" stroke-linejoin="miter" style="stroke: var(--color9, #ff9f00)" d="M26.373 9.557l2.148-2.148"></path>
        <path fill="none" stroke="#ff9f00" stroke-width="1.3913" stroke-miterlimit="10" stroke-linecap="butt" stroke-linejoin="miter" style="stroke: var(--color9, #ff9f00)" d="M26.464 13.852c0.844 1.438 1.343 3.166 1.343 5.011 0 5.535-4.487 10.023-10.023 10.023-0.001 0-0.001 0-0.002 0h-2.864"></path>
        <path fill="none" stroke="#ff9f00" stroke-width="1.3913" stroke-miterlimit="10" stroke-linecap="butt" stroke-linejoin="miter" style="stroke: var(--color9, #ff9f00)" d="M5.612 31.75h-1.432"></path>
    </symbol>
<symbol id="icon-clock" viewBox="0 0 28 28">
<title>clock</title>
<path d="M19.063 25.981c1.544-0.656 2.938-1.594 4.131-2.787s2.131-2.588 2.788-4.131c0.675-1.606 1.019-3.306 1.019-5.063s-0.344-3.462-1.019-5.063c-0.656-1.544-1.594-2.938-2.788-4.131s-2.581-2.131-4.131-2.787c-1.606-0.675-3.306-1.019-5.063-1.019s-3.456 0.344-5.063 1.019c-1.544 0.656-2.938 1.594-4.131 2.787s-2.131 2.581-2.787 4.131c-0.675 1.606-1.019 3.306-1.019 5.063s0.344 3.456 1.019 5.063c0.656 1.544 1.594 2.938 2.787 4.131s2.581 2.131 4.131 2.787c1.606 0.675 3.306 1.019 5.063 1.019s3.463-0.344 5.063-1.019zM0 14c0-7.731 6.269-14 14-14s14 6.269 14 14c0 7.731-6.269 14-14 14s-14-6.269-14-14zM14.5 3c0 0.276-0.224 0.5-0.5 0.5s-0.5-0.224-0.5-0.5c0-0.276 0.224-0.5 0.5-0.5s0.5 0.224 0.5 0.5zM14 25.5c0.276 0 0.5-0.224 0.5-0.5s-0.224-0.5-0.5-0.5c-0.276 0-0.5 0.224-0.5 0.5s0.224 0.5 0.5 0.5zM25.5 14c0 0.276-0.224 0.5-0.5 0.5s-0.5-0.224-0.5-0.5c0-0.276 0.224-0.5 0.5-0.5s0.5 0.224 0.5 0.5zM3 14.5c0.276 0 0.5-0.224 0.5-0.5s-0.224-0.5-0.5-0.5c-0.276 0-0.5 0.224-0.5 0.5s0.224 0.5 0.5 0.5zM9 4.475c0 0.276-0.224 0.5-0.5 0.5s-0.5-0.224-0.5-0.5c0-0.276 0.224-0.5 0.5-0.5s0.5 0.224 0.5 0.5zM19.5 24.025c0.276 0 0.5-0.224 0.5-0.5s-0.224-0.5-0.5-0.5c-0.276 0-0.5 0.224-0.5 0.5s0.224 0.5 0.5 0.5zM24.025 8.5c0 0.276-0.224 0.5-0.5 0.5s-0.5-0.224-0.5-0.5c0-0.276 0.224-0.5 0.5-0.5s0.5 0.224 0.5 0.5zM4.475 20c0.276 0 0.5-0.224 0.5-0.5s-0.224-0.5-0.5-0.5c-0.276 0-0.5 0.224-0.5 0.5s0.224 0.5 0.5 0.5zM4.975 8.5c0 0.276-0.224 0.5-0.5 0.5s-0.5-0.224-0.5-0.5c0-0.276 0.224-0.5 0.5-0.5s0.5 0.224 0.5 0.5zM23.525 20c0.276 0 0.5-0.224 0.5-0.5s-0.224-0.5-0.5-0.5c-0.276 0-0.5 0.224-0.5 0.5s0.224 0.5 0.5 0.5zM20 4.475c0 0.276-0.224 0.5-0.5 0.5s-0.5-0.224-0.5-0.5c0-0.276 0.224-0.5 0.5-0.5s0.5 0.224 0.5 0.5zM8.5 24.025c0.276 0 0.5-0.224 0.5-0.5s-0.224-0.5-0.5-0.5c-0.276 0-0.5 0.224-0.5 0.5s0.224 0.5 0.5 0.5zM14.031 13c0.331 0.012 0.656 0.187 0.838 0.5 0.275 0.481 0.112 1.087-0.363 1.369v7.631c0 0.275-0.225 0.5-0.5 0.5s-0.5-0.225-0.5-0.5v-7.631c-0.15-0.081-0.275-0.206-0.369-0.363-0.187-0.325-0.169-0.719 0.012-1.019l-2.35-3.931c-0.144-0.238-0.069-0.544 0.169-0.688s0.544-0.069 0.687 0.169l2.375 3.963z"></path>
</symbol>
<symbol id="icon-vk" viewBox="0 0 31 28">
<title>vk</title>
<path d="M29.953 8.125c0.234 0.641-0.5 2.141-2.344 4.594-3.031 4.031-3.359 3.656-0.859 5.984 2.406 2.234 2.906 3.313 2.984 3.453 0 0 1 1.75-1.109 1.766l-4 0.063c-0.859 0.172-2-0.609-2-0.609-1.5-1.031-2.906-3.703-4-3.359 0 0-1.125 0.359-1.094 2.766 0.016 0.516-0.234 0.797-0.234 0.797s-0.281 0.297-0.828 0.344h-1.797c-3.953 0.25-7.438-3.391-7.438-3.391s-3.813-3.938-7.156-11.797c-0.219-0.516 0.016-0.766 0.016-0.766s0.234-0.297 0.891-0.297l4.281-0.031c0.406 0.063 0.688 0.281 0.688 0.281s0.25 0.172 0.375 0.5c0.703 1.75 1.609 3.344 1.609 3.344 1.563 3.219 2.625 3.766 3.234 3.437 0 0 0.797-0.484 0.625-4.375-0.063-1.406-0.453-2.047-0.453-2.047-0.359-0.484-1.031-0.625-1.328-0.672-0.234-0.031 0.156-0.594 0.672-0.844 0.766-0.375 2.125-0.391 3.734-0.375 1.266 0.016 1.625 0.094 2.109 0.203 1.484 0.359 0.984 1.734 0.984 5.047 0 1.062-0.203 2.547 0.562 3.031 0.328 0.219 1.141 0.031 3.141-3.375 0 0 0.938-1.625 1.672-3.516 0.125-0.344 0.391-0.484 0.391-0.484s0.25-0.141 0.594-0.094l4.5-0.031c1.359-0.172 1.578 0.453 1.578 0.453z"></path>
</symbol>
<symbol id="icon-facebook" viewBox="0 0 32 32">
<title>facebook</title>
<path d="M19 6h5v-6h-5c-3.86 0-7 3.14-7 7v3h-4v6h4v16h6v-16h5l1-6h-6v-3c0-0.542 0.458-1 1-1z"></path>
</symbol>
<symbol id="icon-twitter" viewBox="0 0 32 32">
<title>twitter</title>
<path d="M32 7.075c-1.175 0.525-2.444 0.875-3.769 1.031 1.356-0.813 2.394-2.1 2.887-3.631-1.269 0.75-2.675 1.3-4.169 1.594-1.2-1.275-2.906-2.069-4.794-2.069-3.625 0-6.563 2.938-6.563 6.563 0 0.512 0.056 1.012 0.169 1.494-5.456-0.275-10.294-2.888-13.531-6.862-0.563 0.969-0.887 2.1-0.887 3.3 0 2.275 1.156 4.287 2.919 5.463-1.075-0.031-2.087-0.331-2.975-0.819 0 0.025 0 0.056 0 0.081 0 3.181 2.263 5.838 5.269 6.437-0.55 0.15-1.131 0.231-1.731 0.231-0.425 0-0.831-0.044-1.237-0.119 0.838 2.606 3.263 4.506 6.131 4.563-2.25 1.762-5.075 2.813-8.156 2.813-0.531 0-1.050-0.031-1.569-0.094 2.913 1.869 6.362 2.95 10.069 2.95 12.075 0 18.681-10.006 18.681-18.681 0-0.287-0.006-0.569-0.019-0.85 1.281-0.919 2.394-2.075 3.275-3.394z"></path>
</symbol>
<symbol id="icon-youtube" viewBox="0 0 32 32">
<title>youtube</title>
<path d="M31.681 9.6c0 0-0.313-2.206-1.275-3.175-1.219-1.275-2.581-1.281-3.206-1.356-4.475-0.325-11.194-0.325-11.194-0.325h-0.012c0 0-6.719 0-11.194 0.325-0.625 0.075-1.987 0.081-3.206 1.356-0.963 0.969-1.269 3.175-1.269 3.175s-0.319 2.588-0.319 5.181v2.425c0 2.587 0.319 5.181 0.319 5.181s0.313 2.206 1.269 3.175c1.219 1.275 2.819 1.231 3.531 1.369 2.563 0.244 10.881 0.319 10.881 0.319s6.725-0.012 11.2-0.331c0.625-0.075 1.988-0.081 3.206-1.356 0.962-0.969 1.275-3.175 1.275-3.175s0.319-2.587 0.319-5.181v-2.425c-0.006-2.588-0.325-5.181-0.325-5.181zM12.694 20.15v-8.994l8.644 4.513-8.644 4.481z"></path>
</symbol>
</defs>
</svg>
